<svg xmlns="http://www.w3.org/2000/svg" xmlns:xlink="http://www.w3.org/1999/xlink" xmlns:lucid="lucid" width="1760" height="1360"><g transform="translate(0 0)" lucid:page-tab-id="0_0"><path d="M928 973.25c17.67 0 32 17.9 32 40s-14.33 40-32 40h-96c-17.67 0-32-17.9-32-40s14.33-40 32-40z" stroke="#000" stroke-opacity="0" fill="#ffeadb"/><path d="M453.15 78.58a8 8 0 0 1 8-8h836.75a8 8 0 0 1 8 8v25.15a8 8 0 0 1-8 8H461.15a8 8 0 0 1-8-8z" stroke="#000" stroke-opacity="0" stroke-width="2" fill="#fff" fill-opacity="0"/><use xlink:href="#a" transform="matrix(1,0,0,1,457.14655278534315,74.57761197839864) translate(348.0174074074074 23.657777777777778)"/><use xlink:href="#b" transform="matrix(1,0,0,1,457.14655278534315,74.57761197839864) translate(355.30135802469135 23.657777777777778)"/><path d="M733.67 110.4h300.15M733.7 110.4h-1.03M1033.8 110.4h1.02" stroke="#a9afb8" stroke-width="2" fill="none"/><path d="M453.15 119.73a8 8 0 0 1 8-8h837.7a8 8 0 0 1 8 8v2.85a8 8 0 0 1-8 8h-837.7a8 8 0 0 1-8-8z" stroke="#000" stroke-opacity="0" stroke-width="2" fill="#fff" fill-opacity="0"/><use xlink:href="#c" transform="matrix(1,0,0,1,457.1465527853436,115.73283593529744) translate(340.6719855967078 14.917037037037037)"/><use xlink:href="#d" transform="matrix(1,0,0,1,457.1465527853436,115.73283593529744) translate(381.41961934156376 14.917037037037037)"/><use xlink:href="#e" transform="matrix(1,0,0,1,457.1465527853436,115.73283593529744) translate(393.86910493827156 14.917037037037037)"/><use xlink:href="#f" transform="matrix(1,0,0,1,457.1465527853436,115.73283593529744) translate(452.4624176954732 14.917037037037037)"/><use xlink:href="#g" transform="matrix(1,0,0,1,457.1465527853436,115.73283593529744) translate(477.95624485596704 14.917037037037037)"/><path d="M159.52 418a8 8 0 0 1 8-8H282.8a8 8 0 0 1 8 8v150.55a8 8 0 0 1-8 8H167.5a8 8 0 0 1-8-8z" stroke="#ff80df" stroke-width="2" fill="#fff0fb"/><use xlink:href="#h" transform="matrix(1,0,0,1,171.52130701940087,422) translate(32.525 75.10000000000001)"/><path d="M421.4 418a8 8 0 0 1 8-8h115.26a8 8 0 0 1 8 8v150.55a8 8 0 0 1-8 8H429.4a8 8 0 0 1-8-8z" stroke="#ff80df" stroke-width="2" fill="#fff0fb"/><use xlink:href="#i" transform="matrix(1,0,0,1,433.398858039809,422) translate(20.049999999999997 53.5)"/><use xlink:href="#j" transform="matrix(1,0,0,1,433.398858039809,422) translate(5.574999999999996 75.10000000000001)"/><use xlink:href="#k" transform="matrix(1,0,0,1,433.398858039809,422) translate(4.549999999999997 96.70000000000002)"/><use xlink:href="#l" transform="matrix(1,0,0,1,433.398858039809,422) translate(29.549999999999997 96.70000000000002)"/><path d="M743.63 416.8a6.3 6.3 0 0 1 9.9 0l55.4 70.2a10.14 10.14 0 0 1 0 12.56l-55.4 70.2a6.3 6.3 0 0 1-9.9 0l-55.4-70.2a10.14 10.14 0 0 1 0-12.56z" stroke="#6db1ff" stroke-width="2" fill="#edf5ff"/><use xlink:href="#m" transform="matrix(1,0,0,1,688.276409060217,415.51724137931035) translate(21.074999999999996 49.19999999999999)"/><use xlink:href="#j" transform="matrix(1,0,0,1,688.276409060217,415.51724137931035) translate(12.074999999999996 70.8)"/><use xlink:href="#n" transform="matrix(1,0,0,1,688.276409060217,415.51724137931035) translate(13.549999999999997 92.4)"/><use xlink:href="#o" transform="matrix(1,0,0,1,688.276409060217,415.51724137931035) translate(54.5 92.4)"/><use xlink:href="#p" transform="matrix(1,0,0,1,688.276409060217,415.51724137931035) translate(35.55 114)"/><path d="M944.5 418a8 8 0 0 1 8-8h115.27a8 8 0 0 1 8 8v150.55a8 8 0 0 1-8 8H952.5a8 8 0 0 1-8-8z" stroke="#ff80df" stroke-width="2" fill="#fff0fb"/><use xlink:href="#q" transform="matrix(1,0,0,1,956.5008988561356,422) translate(21.424999999999997 53.5)"/><use xlink:href="#r" transform="matrix(1,0,0,1,956.5008988561356,422) translate(0.07499999999999574 75.10000000000001)"/><use xlink:href="#s" transform="matrix(1,0,0,1,956.5008988561356,422) translate(58.025 75.10000000000001)"/><use xlink:href="#n" transform="matrix(1,0,0,1,956.5008988561356,422) translate(5.549999999999997 96.70000000000002)"/><use xlink:href="#t" transform="matrix(1,0,0,1,956.5008988561356,422) translate(46.5 96.70000000000002)"/><path d="M944.5 791.45a8 8 0 0 1 8-8h115.27a8 8 0 0 1 8 8V942a8 8 0 0 1-8 8H952.5a8 8 0 0 1-8-8z" stroke="#ff80df" stroke-width="2" fill="#fff0fb"/><use xlink:href="#q" transform="matrix(1,0,0,1,956.5008988561356,795.448275862069) translate(21.424999999999997 53.5)"/><use xlink:href="#r" transform="matrix(1,0,0,1,956.5008988561356,795.448275862069) translate(0.07499999999999574 75.10000000000001)"/><use xlink:href="#s" transform="matrix(1,0,0,1,956.5008988561356,795.448275862069) translate(58.025 75.10000000000001)"/><use xlink:href="#n" transform="matrix(1,0,0,1,956.5008988561356,795.448275862069) translate(16.049999999999997 96.70000000000002)"/><use xlink:href="#u" transform="matrix(1,0,0,1,956.5008988561356,795.448275862069) translate(57 96.70000000000002)"/><path d="M1206.38 418a8 8 0 0 1 8-8h115.26a8 8 0 0 1 8 8v150.55a8 8 0 0 1-8 8h-115.26a8 8 0 0 1-8-8z" stroke="#ff80df" stroke-width="2" fill="#fff0fb"/><use xlink:href="#v" transform="matrix(1,0,0,1,1218.3784498765435,422) translate(11.624999999999993 64.3)"/><use xlink:href="#w" transform="matrix(1,0,0,1,1218.3784498765435,422) translate(62.425000000000004 64.3)"/><use xlink:href="#x" transform="matrix(1,0,0,1,1218.3784498765435,422) translate(13.524999999999999 85.9)"/><use xlink:href="#t" transform="matrix(1,0,0,1,1218.3784498765435,422) translate(38.525 85.9)"/><path d="M1206.38 791.45a8 8 0 0 1 8-8h115.26a8 8 0 0 1 8 8V942a8 8 0 0 1-8 8h-115.26a8 8 0 0 1-8-8z" stroke="#ff80df" stroke-width="2" fill="#fff0fb"/><use xlink:href="#y" transform="matrix(1,0,0,1,1218.3784498765435,795.448275862069) translate(0.5499999999999972 75.10000000000001)"/><use xlink:href="#u" transform="matrix(1,0,0,1,1218.3784498765435,795.448275862069) translate(72.5 75.10000000000001)"/><path d="M1468.26 418a8 8 0 0 1 8-8h115.26a8 8 0 0 1 8 8v150.55a8 8 0 0 1-8 8h-115.26a8 8 0 0 1-8-8z" stroke="#ff80df" stroke-width="2" fill="#fff0fb"/><use xlink:href="#z" transform="matrix(1,0,0,1,1480.2560008969515,422) translate(39.075 75.10000000000001)"/><path d="M292.3 493.28H404" stroke="#333" fill="none"/><path d="M292.3 493.75h-.5v-.95h.5z" stroke="#333" stroke-width=".05" fill="#333"/><path d="M418.78 493.28l-14.26 4.63v-9.26z" stroke="#333" fill="#333"/><path d="M554.16 493.28h114.5" stroke="#333" fill="none"/><path d="M554.18 493.75h-.52v-.95h.52z" stroke="#333" stroke-width=".05" fill="#333"/><path d="M683.43 493.28l-14.26 4.63v-9.26z" stroke="#333" fill="#333"/><path d="M812.6 493.28h114.52" stroke="#333" fill="none"/><path d="M812.63 493.75h-.55l.03-.47-.02-.48h.55z" stroke="#333" stroke-width=".05" fill="#333"/><path d="M941.88 493.28l-14.26 4.63v-9.26z" stroke="#333" fill="#333"/><path d="M748.58 573.66v281.06a12 12 0 0 0 12 12h166.54" stroke="#333" fill="none"/><path d="M748.58 573.16l.48-.04v.55h-.95v-.55z" stroke="#333" stroke-width=".05" fill="#333"/><path d="M941.88 866.72l-14.26 4.64v-9.27z" stroke="#333" fill="#333"/><path d="M1077.27 493.28H1189" stroke="#333" fill="none"/><path d="M1077.28 493.75h-.5v-.95h.5z" stroke="#333" stroke-width=".05" fill="#333"/><path d="M1203.76 493.28l-14.27 4.63v-9.26z" stroke="#333" fill="#333"/><path d="M1077.27 866.72H1189" stroke="#333" fill="none"/><path d="M1077.28 867.2h-.5v-.95h.5z" stroke="#333" stroke-width=".05" fill="#333"/><path d="M1203.76 866.72l-14.27 4.64v-9.27z" stroke="#333" fill="#333"/><path d="M1339.14 493.28h111.73" stroke="#333" fill="none"/><path d="M1339.16 493.75h-.52v-.95h.52z" stroke="#333" stroke-width=".05" fill="#333"/><path d="M1465.64 493.28l-14.27 4.63v-9.26z" stroke="#333" fill="#333"/><path d="M1339.14 866.72h182.75a12 12 0 0 0 12-12V593.94" stroke="#333" fill="none"/><path d="M1339.16 867.2h-.52v-.95h.52z" stroke="#333" stroke-width=".05" fill="#333"/><path d="M1533.9 579.17l4.62 14.27h-9.27z" stroke="#333" fill="#333"/><defs><path fill="#a9afb8" d="M76-208v77h127v40H76V0H24v-248h183v40H76" id="A"/><path fill="#a9afb8" d="M25 0v-261h50V0H25" id="B"/><path fill="#a9afb8" d="M85 4C-2 5 27-109 22-190h50c7 57-23 150 33 157 60-5 35-97 40-157h50l1 190h-47c-2-12 1-28-3-38-12 25-28 42-61 42" id="C"/><path fill="#a9afb8" d="M144 0l-44-69L55 0H2l70-98-66-92h53l41 62 40-62h54l-67 91 71 99h-54" id="D"/><path fill="#a9afb8" d="M110-194c64 0 96 36 96 99 0 64-35 99-97 99-61 0-95-36-95-99 0-62 34-99 96-99zm-1 164c35 0 45-28 45-65 0-40-10-65-43-65-34 0-45 26-45 65 0 36 10 65 43 65" id="E"/><path fill="#a9afb8" d="M195-6C206 82 75 100 31 46c-4-6-6-13-8-21l49-6c3 16 16 24 34 25 40 0 42-37 40-79-11 22-30 35-61 35-53 0-70-43-70-97 0-56 18-96 73-97 30 0 46 14 59 34l2-30h47zm-90-29c32 0 41-27 41-63 0-35-9-62-40-62-32 0-39 29-40 63 0 36 9 62 39 62" id="F"/><path fill="#a9afb8" d="M135-150c-39-12-60 13-60 57V0H25l-1-190h47c2 13-1 29 3 40 6-28 27-53 61-41v41" id="G"/><path fill="#a9afb8" d="M133-34C117-15 103 5 69 4 32 3 11-16 11-54c-1-60 55-63 116-61 1-26-3-47-28-47-18 1-26 9-28 27l-52-2c7-38 36-58 82-57s74 22 75 68l1 82c-1 14 12 18 25 15v27c-30 8-71 5-69-32zm-48 3c29 0 43-24 42-57-32 0-66-3-65 30 0 17 8 27 23 27" id="H"/><path fill="#a9afb8" d="M220-157c-53 9-28 100-34 157h-49v-107c1-27-5-49-29-50C55-147 81-57 75 0H25l-1-190h47c2 12-1 28 3 38 10-53 101-56 108 0 13-22 24-43 59-42 82 1 51 116 57 194h-49v-107c-1-25-5-48-29-50" id="I"/><g id="b"><use transform="matrix(0.0728395061728395,0,0,0.0728395061728395,0,0)" xlink:href="#A"/><use transform="matrix(0.0728395061728395,0,0,0.0728395061728395,15.95185185185185,0)" xlink:href="#B"/><use transform="matrix(0.0728395061728395,0,0,0.0728395061728395,23.235802469135802,0)" xlink:href="#C"/><use transform="matrix(0.0728395061728395,0,0,0.0728395061728395,39.187654320987654,0)" xlink:href="#D"/><use transform="matrix(0.0728395061728395,0,0,0.0728395061728395,53.75555555555555,0)" xlink:href="#E"/><use transform="matrix(0.0728395061728395,0,0,0.0728395061728395,69.7074074074074,0)" xlink:href="#F"/><use transform="matrix(0.0728395061728395,0,0,0.0728395061728395,85.65925925925926,0)" xlink:href="#G"/><use transform="matrix(0.0728395061728395,0,0,0.0728395061728395,95.85679012345679,0)" xlink:href="#H"/><use transform="matrix(0.0728395061728395,0,0,0.0728395061728395,110.42469135802469,0)" xlink:href="#I"/><use transform="matrix(0.0728395061728395,0,0,0.0728395061728395,133.73333333333332,0)" xlink:href="#H"/></g><path fill="#a9afb8" d="M24-231v-30h32v30H24zM-9 49c24 4 33-6 33-30v-209h32V24c2 40-23 58-65 49V49" id="J"/><path fill="#a9afb8" d="M100-194c62-1 85 37 85 99 1 63-27 99-86 99S16-35 15-95c0-66 28-99 85-99zM99-20c44 1 53-31 53-75 0-43-8-75-51-75s-53 32-53 75 10 74 51 75" id="K"/><path fill="#a9afb8" d="M135-143c-3-34-86-38-87 0 15 53 115 12 119 90S17 21 10-45l28-5c4 36 97 45 98 0-10-56-113-15-118-90-4-57 82-63 122-42 12 7 21 19 24 35" id="L"/><path fill="#a9afb8" d="M100-194c63 0 86 42 84 106H49c0 40 14 67 53 68 26 1 43-12 49-29l28 8c-11 28-37 45-77 45C44 4 14-33 15-96c1-61 26-98 85-98zm52 81c6-60-76-77-97-28-3 7-6 17-6 28h103zm-74-98c8-23 27-35 38-54h36v5l-58 49H78" id="M"/><g id="c"><use transform="matrix(0.04248971193415638,0,0,0.04248971193415638,0,0)" xlink:href="#J"/><use transform="matrix(0.04248971193415638,0,0,0.04248971193415638,3.356687242798354,0)" xlink:href="#K"/><use transform="matrix(0.04248971193415638,0,0,0.04248971193415638,11.854629629629626,0)" xlink:href="#L"/><use transform="matrix(0.04248971193415638,0,0,0.04248971193415638,19.502777777777776,0)" xlink:href="#M"/></g><path fill="#a9afb8" d="M32 76v-337h29V76H32" id="N"/><use transform="matrix(0.04248971193415638,0,0,0.04248971193415638,0,0)" xlink:href="#N" id="d"/><path fill="#a9afb8" d="M140-251c81 0 123 46 123 126C263-46 219 4 140 4 59 4 17-45 17-125s42-126 123-126zm0 227c63 0 89-41 89-101s-29-99-89-99c-61 0-89 39-89 99S79-25 140-24" id="O"/><path fill="#a9afb8" d="M96-169c-40 0-48 33-48 73s9 75 48 75c24 0 41-14 43-38l32 2c-6 37-31 61-74 61-59 0-76-41-82-99-10-93 101-131 147-64 4 7 5 14 7 22l-32 3c-4-21-16-35-41-35" id="P"/><path fill="#a9afb8" d="M59-47c-2 24 18 29 38 22v24C64 9 27 4 27-40v-127H5v-23h24l9-43h21v43h35v23H59v120" id="Q"/><path fill="#a9afb8" d="M115-194c53 0 69 39 70 98 0 66-23 100-70 100C84 3 66-7 56-30L54 0H23l1-261h32v101c10-23 28-34 59-34zm-8 174c40 0 45-34 45-75 0-40-5-75-45-74-42 0-51 32-51 76 0 43 10 73 51 73" id="R"/><path fill="#a9afb8" d="M100-194c63 0 86 42 84 106H49c0 40 14 67 53 68 26 1 43-12 49-29l28 8c-11 28-37 45-77 45C44 4 14-33 15-96c1-61 26-98 85-98zm52 81c6-60-76-77-97-28-3 7-6 17-6 28h103" id="S"/><path fill="#a9afb8" d="M114-163C36-179 61-72 57 0H25l-1-190h30c1 12-1 29 2 39 6-27 23-49 58-41v29" id="T"/><g id="e"><use transform="matrix(0.04248971193415638,0,0,0.04248971193415638,0,0)" xlink:href="#O"/><use transform="matrix(0.04248971193415638,0,0,0.04248971193415638,11.897119341563785,0)" xlink:href="#P"/><use transform="matrix(0.04248971193415638,0,0,0.04248971193415638,19.545267489711932,0)" xlink:href="#Q"/><use transform="matrix(0.04248971193415638,0,0,0.04248971193415638,23.79423868312757,0)" xlink:href="#K"/><use transform="matrix(0.04248971193415638,0,0,0.04248971193415638,32.29218106995884,0)" xlink:href="#R"/><use transform="matrix(0.04248971193415638,0,0,0.04248971193415638,40.79012345679012,0)" xlink:href="#S"/><use transform="matrix(0.04248971193415638,0,0,0.04248971193415638,49.288065843621396,0)" xlink:href="#T"/></g><path fill="#a9afb8" d="M101-251c82-7 93 87 43 132L82-64C71-53 59-42 53-27h129V0H18c2-99 128-94 128-182 0-28-16-43-45-43s-46 15-49 41l-32-3c6-41 34-60 81-64" id="U"/><path fill="#a9afb8" d="M134-131c28 9 52 24 51 62-1 50-34 73-85 73S17-19 16-69c0-36 21-54 49-61-75-25-45-126 34-121 46 3 78 18 79 63 0 33-17 51-44 57zm-34-11c31 1 46-15 46-44 0-28-17-43-47-42-29 0-46 13-45 42 1 28 16 44 46 44zm1 122c35 0 51-18 51-52 0-30-18-46-53-46-33 0-51 17-51 47 0 34 19 51 53 51" id="V"/><path fill="#a9afb8" d="M68-38c1 34 0 65-14 84H32c9-13 17-26 17-46H33v-38h35" id="W"/><g id="f"><use transform="matrix(0.04248971193415638,0,0,0.04248971193415638,0,0)" xlink:href="#U"/><use transform="matrix(0.04248971193415638,0,0,0.04248971193415638,8.497942386831275,0)" xlink:href="#V"/><use transform="matrix(0.04248971193415638,0,0,0.04248971193415638,16.99588477366255,0)" xlink:href="#W"/></g><path fill="#a9afb8" d="M101-251c68 0 85 55 85 127S166 4 100 4C33 4 14-52 14-124c0-73 17-127 87-127zm-1 229c47 0 54-49 54-102s-4-102-53-102c-51 0-55 48-55 102 0 53 5 102 54 102" id="X"/><path fill="#a9afb8" d="M155-56V0h-30v-56H8v-25l114-167h33v167h35v25h-35zm-30-156c-27 46-58 90-88 131h88v-131" id="Y"/><g id="g"><use transform="matrix(0.04248971193415638,0,0,0.04248971193415638,0,0)" xlink:href="#U"/><use transform="matrix(0.04248971193415638,0,0,0.04248971193415638,8.497942386831275,0)" xlink:href="#X"/><use transform="matrix(0.04248971193415638,0,0,0.04248971193415638,16.99588477366255,0)" xlink:href="#U"/><use transform="matrix(0.04248971193415638,0,0,0.04248971193415638,25.493827160493822,0)" xlink:href="#Y"/></g><path d="M33 0v-248h34V0H33" id="Z"/><path d="M117-194c89-4 53 116 60 194h-32v-121c0-31-8-49-39-48C34-167 62-67 57 0H25l-1-190h30c1 10-1 24 2 32 11-22 29-35 61-36" id="aa"/><path d="M34 0v-190h32V0H34zM24-211c8-23 27-35 38-54h36v5l-58 49H24" id="ab"/><path d="M96-169c-40 0-48 33-48 73s9 75 48 75c24 0 41-14 43-38l32 2c-6 37-31 61-74 61-59 0-76-41-82-99-10-93 101-131 147-64 4 7 5 14 7 22l-32 3c-4-21-16-35-41-35" id="ac"/><path d="M24-231v-30h32v30H24zM24 0v-190h32V0H24" id="ad"/><path d="M100-194c62-1 85 37 85 99 1 63-27 99-86 99S16-35 15-95c0-66 28-99 85-99zM99-20c44 1 53-31 53-75 0-43-8-75-51-75s-53 32-53 75 10 74 51 75" id="ae"/><g id="h"><use transform="matrix(0.05,0,0,0.05,0,0)" xlink:href="#Z"/><use transform="matrix(0.05,0,0,0.05,5,0)" xlink:href="#aa"/><use transform="matrix(0.05,0,0,0.05,15,0)" xlink:href="#ab"/><use transform="matrix(0.05,0,0,0.05,20,0)" xlink:href="#ac"/><use transform="matrix(0.05,0,0,0.05,29,0)" xlink:href="#ad"/><use transform="matrix(0.05,0,0,0.05,32.95,0)" xlink:href="#ae"/></g><path d="M233-177c-1 41-23 64-60 70L243 0h-38l-65-103H63V0H30v-248c88 3 205-21 203 71zM63-129c60-2 137 13 137-47 0-61-80-42-137-45v92" id="af"/><path d="M100-194c63 0 86 42 84 106H49c0 40 14 67 53 68 26 1 43-12 49-29l28 8c-11 28-37 45-77 45C44 4 14-33 15-96c1-61 26-98 85-98zm52 81c6-60-76-77-97-28-3 7-6 17-6 28h103" id="ag"/><path d="M115-194c53 0 69 39 70 98 0 66-23 100-70 100C84 3 66-7 56-30L54 0H23l1-261h32v101c10-23 28-34 59-34zm-8 174c40 0 45-34 45-75 0-40-5-75-45-74-42 0-51 32-51 76 0 43 10 73 51 73" id="ah"/><path d="M114-163C36-179 61-72 57 0H25l-1-190h30c1 12-1 29 2 39 6-27 23-49 58-41v29" id="ai"/><g id="i"><use transform="matrix(0.05,0,0,0.05,0,0)" xlink:href="#af"/><use transform="matrix(0.05,0,0,0.05,12.950000000000001,0)" xlink:href="#ag"/><use transform="matrix(0.05,0,0,0.05,22.950000000000003,0)" xlink:href="#ac"/><use transform="matrix(0.05,0,0,0.05,31.950000000000003,0)" xlink:href="#ag"/><use transform="matrix(0.05,0,0,0.05,41.95,0)" xlink:href="#ah"/><use transform="matrix(0.05,0,0,0.05,51.95,0)" xlink:href="#ag"/><use transform="matrix(0.05,0,0,0.05,61.95,0)" xlink:href="#ai"/></g><path d="M59-47c-2 24 18 29 38 22v24C64 9 27 4 27-40v-127H5v-23h24l9-43h21v43h35v23H59v120" id="aj"/><path d="M210-169c-67 3-38 105-44 169h-31v-121c0-29-5-50-35-48C34-165 62-65 56 0H25l-1-190h30c1 10-1 24 2 32 10-44 99-50 107 0 11-21 27-35 58-36 85-2 47 119 55 194h-31v-121c0-29-5-49-35-48" id="ak"/><path d="M115-194c55 1 70 41 70 98S169 2 115 4C84 4 66-9 55-30l1 105H24l-1-265h31l2 30c10-21 28-34 59-34zm-8 174c40 0 45-34 45-75s-6-73-45-74c-42 0-51 32-51 76 0 43 10 73 51 73" id="al"/><path d="M141-36C126-15 110 5 73 4 37 3 15-17 15-53c-1-64 63-63 125-63 3-35-9-54-41-54-24 1-41 7-42 31l-33-3c5-37 33-52 76-52 45 0 72 20 72 64v82c-1 20 7 32 28 27v20c-31 9-61-2-59-35zM48-53c0 20 12 33 32 33 41-3 63-29 60-74-43 2-92-5-92 41" id="am"/><path d="M84 4C-5 8 30-112 23-190h32v120c0 31 7 50 39 49 72-2 45-101 50-169h31l1 190h-30c-1-10 1-25-2-33-11 22-28 36-60 37" id="an"/><g id="j"><use transform="matrix(0.05,0,0,0.05,0,0)" xlink:href="#aj"/><use transform="matrix(0.05,0,0,0.05,5,0)" xlink:href="#ag"/><use transform="matrix(0.05,0,0,0.05,15,0)" xlink:href="#ak"/><use transform="matrix(0.05,0,0,0.05,29.950000000000003,0)" xlink:href="#al"/><use transform="matrix(0.05,0,0,0.05,39.95,0)" xlink:href="#ag"/><use transform="matrix(0.05,0,0,0.05,49.95,0)" xlink:href="#ai"/><use transform="matrix(0.05,0,0,0.05,55.900000000000006,0)" xlink:href="#am"/><use transform="matrix(0.05,0,0,0.05,65.9,0)" xlink:href="#aj"/><use transform="matrix(0.05,0,0,0.05,70.9,0)" xlink:href="#an"/><use transform="matrix(0.05,0,0,0.05,80.9,0)" xlink:href="#ai"/><use transform="matrix(0.05,0,0,0.05,86.85000000000001,0)" xlink:href="#am"/></g><path d="M85-194c31 0 48 13 60 33l-1-100h32l1 261h-30c-2-10 0-23-3-31C134-8 116 4 85 4 32 4 16-35 15-94c0-66 23-100 70-100zm9 24c-40 0-46 34-46 75 0 40 6 74 45 74 42 0 51-32 51-76 0-42-9-74-50-73" id="ao"/><g id="k"><use transform="matrix(0.05,0,0,0.05,0,0)" xlink:href="#ao"/><use transform="matrix(0.05,0,0,0.05,10,0)" xlink:href="#ae"/></g><g id="l"><use transform="matrix(0.05,0,0,0.05,0,0)" xlink:href="#am"/><use transform="matrix(0.05,0,0,0.05,10,0)" xlink:href="#ak"/><use transform="matrix(0.05,0,0,0.05,24.950000000000003,0)" xlink:href="#ah"/><use transform="matrix(0.05,0,0,0.05,34.95,0)" xlink:href="#ad"/><use transform="matrix(0.05,0,0,0.05,38.900000000000006,0)" xlink:href="#ag"/><use transform="matrix(0.05,0,0,0.05,48.900000000000006,0)" xlink:href="#aa"/><use transform="matrix(0.05,0,0,0.05,58.900000000000006,0)" xlink:href="#aj"/><use transform="matrix(0.05,0,0,0.05,63.900000000000006,0)" xlink:href="#ag"/></g><path d="M212-179c-10-28-35-45-73-45-59 0-87 40-87 99 0 60 29 101 89 101 43 0 62-24 78-52l27 14C228-24 195 4 139 4 59 4 22-46 18-125c-6-104 99-153 187-111 19 9 31 26 39 46" id="ap"/><path d="M108 0H70L1-190h34L89-25l56-165h34" id="aq"/><g id="m"><use transform="matrix(0.05,0,0,0.05,0,0)" xlink:href="#ap"/><use transform="matrix(0.05,0,0,0.05,12.950000000000001,0)" xlink:href="#ae"/><use transform="matrix(0.05,0,0,0.05,22.950000000000003,0)" xlink:href="#aa"/><use transform="matrix(0.05,0,0,0.05,32.95,0)" xlink:href="#aq"/><use transform="matrix(0.05,0,0,0.05,41.95,0)" xlink:href="#ag"/><use transform="matrix(0.05,0,0,0.05,51.95,0)" xlink:href="#ai"/><use transform="matrix(0.05,0,0,0.05,57.900000000000006,0)" xlink:href="#aj"/><use transform="matrix(0.05,0,0,0.05,62.900000000000006,0)" xlink:href="#ag"/><use transform="matrix(0.05,0,0,0.05,72.9,0)" xlink:href="#ai"/></g><g id="n"><use transform="matrix(0.05,0,0,0.05,0,0)" xlink:href="#al"/><use transform="matrix(0.05,0,0,0.05,10,0)" xlink:href="#am"/><use transform="matrix(0.05,0,0,0.05,20,0)" xlink:href="#ai"/><use transform="matrix(0.05,0,0,0.05,25.950000000000003,0)" xlink:href="#am"/></g><path d="M100-194c62-1 85 37 85 99 1 63-27 99-86 99S16-35 15-95c0-66 28-99 85-99zM99-20c44 1 53-31 53-75 0-43-8-75-51-75s-53 32-53 75 10 74 51 75zM76-211c8-23 27-35 38-54h36v5l-58 49H76" id="ar"/><path d="M177-190C167-65 218 103 67 71c-23-6-38-20-44-43l32-5c15 47 100 32 89-28v-30C133-14 115 1 83 1 29 1 15-40 15-95c0-56 16-97 71-98 29-1 48 16 59 35 1-10 0-23 2-32h30zM94-22c36 0 50-32 50-73 0-42-14-75-50-75-39 0-46 34-46 75s6 73 46 73" id="as"/><g id="o"><use transform="matrix(0.05,0,0,0.05,0,0)" xlink:href="#ac"/><use transform="matrix(0.05,0,0,0.05,9,0)" xlink:href="#ar"/><use transform="matrix(0.05,0,0,0.05,19,0)" xlink:href="#ao"/><use transform="matrix(0.05,0,0,0.05,29,0)" xlink:href="#ad"/><use transform="matrix(0.05,0,0,0.05,32.95,0)" xlink:href="#as"/><use transform="matrix(0.05,0,0,0.05,42.95,0)" xlink:href="#ae"/></g><path d="M240 0l2-218c-23 76-54 145-80 218h-23L58-218 59 0H30v-248h44l77 211c21-75 51-140 76-211h43V0h-30" id="at"/><path d="M135-143c-3-34-86-38-87 0 15 53 115 12 119 90S17 21 10-45l28-5c4 36 97 45 98 0-10-56-113-15-118-90-4-57 82-63 122-42 12 7 21 19 24 35" id="au"/><g id="p"><use transform="matrix(0.05,0,0,0.05,0,0)" xlink:href="#at"/><use transform="matrix(0.05,0,0,0.05,14.950000000000001,0)" xlink:href="#ae"/><use transform="matrix(0.05,0,0,0.05,24.950000000000003,0)" xlink:href="#ai"/><use transform="matrix(0.05,0,0,0.05,30.900000000000002,0)" xlink:href="#au"/><use transform="matrix(0.05,0,0,0.05,39.900000000000006,0)" xlink:href="#ag"/></g><path d="M127-220V0H93v-220H8v-28h204v28h-85" id="av"/><path d="M9 0v-24l116-142H16v-24h144v24L44-24h123V0H9" id="aw"/><g id="q"><use transform="matrix(0.05,0,0,0.05,0,0)" xlink:href="#av"/><use transform="matrix(0.05,0,0,0.05,10.3,0)" xlink:href="#ai"/><use transform="matrix(0.05,0,0,0.05,16.25,0)" xlink:href="#am"/><use transform="matrix(0.05,0,0,0.05,26.25,0)" xlink:href="#ao"/><use transform="matrix(0.05,0,0,0.05,36.25,0)" xlink:href="#an"/><use transform="matrix(0.05,0,0,0.05,46.25,0)" xlink:href="#aw"/><use transform="matrix(0.05,0,0,0.05,55.25,0)" xlink:href="#ad"/><use transform="matrix(0.05,0,0,0.05,59.2,0)" xlink:href="#ai"/></g><g id="r"><use transform="matrix(0.05,0,0,0.05,0,0)" xlink:href="#ac"/><use transform="matrix(0.05,0,0,0.05,9,0)" xlink:href="#ar"/><use transform="matrix(0.05,0,0,0.05,19,0)" xlink:href="#ao"/><use transform="matrix(0.05,0,0,0.05,29,0)" xlink:href="#ad"/><use transform="matrix(0.05,0,0,0.05,32.95,0)" xlink:href="#as"/><use transform="matrix(0.05,0,0,0.05,42.95,0)" xlink:href="#ae"/></g><g id="s"><use transform="matrix(0.05,0,0,0.05,0,0)" xlink:href="#at"/><use transform="matrix(0.05,0,0,0.05,14.950000000000001,0)" xlink:href="#ae"/><use transform="matrix(0.05,0,0,0.05,24.950000000000003,0)" xlink:href="#ai"/><use transform="matrix(0.05,0,0,0.05,30.900000000000002,0)" xlink:href="#au"/><use transform="matrix(0.05,0,0,0.05,39.900000000000006,0)" xlink:href="#ag"/></g><path d="M160-131c35 5 61 23 61 61C221 17 115-2 30 0v-248c76 3 177-17 177 60 0 33-19 50-47 57zm-97-11c50-1 110 9 110-42 0-47-63-36-110-37v79zm0 115c55-2 124 14 124-45 0-56-70-42-124-44v89" id="ax"/><g id="t"><use transform="matrix(0.05,0,0,0.05,0,0)" xlink:href="#ax"/><use transform="matrix(0.05,0,0,0.05,12,0)" xlink:href="#an"/><use transform="matrix(0.05,0,0,0.05,22,0)" xlink:href="#aw"/><use transform="matrix(0.05,0,0,0.05,31,0)" xlink:href="#aw"/><use transform="matrix(0.05,0,0,0.05,40,0)" xlink:href="#ag"/><use transform="matrix(0.05,0,0,0.05,50,0)" xlink:href="#ai"/></g><path d="M30 0v-248h33v221h125V0H30" id="ay"/><path d="M30 0v-248h187v28H63v79h144v27H63v87h162V0H30" id="az"/><path d="M30-248c118-7 216 8 213 122C240-48 200 0 122 0H30v-248zM63-27c89 8 146-16 146-99s-60-101-146-95v194" id="aA"/><g id="u"><use transform="matrix(0.05,0,0,0.05,0,0)" xlink:href="#ay"/><use transform="matrix(0.05,0,0,0.05,10,0)" xlink:href="#az"/><use transform="matrix(0.05,0,0,0.05,22,0)" xlink:href="#aA"/></g><g id="v"><use transform="matrix(0.05,0,0,0.05,0,0)" xlink:href="#az"/><use transform="matrix(0.05,0,0,0.05,12,0)" xlink:href="#ak"/><use transform="matrix(0.05,0,0,0.05,26.950000000000003,0)" xlink:href="#ad"/><use transform="matrix(0.05,0,0,0.05,30.900000000000002,0)" xlink:href="#aj"/><use transform="matrix(0.05,0,0,0.05,35.900000000000006,0)" xlink:href="#ad"/><use transform="matrix(0.05,0,0,0.05,39.85000000000001,0)" xlink:href="#ai"/></g><g id="w"><use transform="matrix(0.05,0,0,0.05,0,0)" xlink:href="#au"/><use transform="matrix(0.05,0,0,0.05,9,0)" xlink:href="#ae"/><use transform="matrix(0.05,0,0,0.05,19,0)" xlink:href="#ak"/></g><g id="x"><use transform="matrix(0.05,0,0,0.05,0,0)" xlink:href="#aa"/><use transform="matrix(0.05,0,0,0.05,10,0)" xlink:href="#ae"/></g><path d="M205 0l-28-72H64L36 0H1l101-248h38L239 0h-34zm-38-99l-47-123c-12 45-31 82-46 123h93" id="aB"/><g id="y"><use transform="matrix(0.05,0,0,0.05,0,0)" xlink:href="#aB"/><use transform="matrix(0.05,0,0,0.05,12,0)" xlink:href="#ac"/><use transform="matrix(0.05,0,0,0.05,21,0)" xlink:href="#ag"/><use transform="matrix(0.05,0,0,0.05,31,0)" xlink:href="#aa"/><use transform="matrix(0.05,0,0,0.05,41,0)" xlink:href="#ao"/><use transform="matrix(0.05,0,0,0.05,51,0)" xlink:href="#ag"/><use transform="matrix(0.05,0,0,0.05,61,0)" xlink:href="#ai"/></g><path d="M63-220v92h138v28H63V0H30v-248h175v28H63" id="aC"/><g id="z"><use transform="matrix(0.05,0,0,0.05,0,0)" xlink:href="#aC"/><use transform="matrix(0.05,0,0,0.05,10.950000000000001,0)" xlink:href="#ad"/><use transform="matrix(0.05,0,0,0.05,14.9,0)" xlink:href="#ak"/></g></defs></g></svg>