G04*
G04 #@! TF.GenerationSoftware,Altium Limited,Altium Designer,24.10.1 (45)*
G04*
G04 Layer_Physical_Order=2*
G04 Layer_Color=16711680*
%FSLAX44Y44*%
%MOMM*%
G71*
G04*
G04 #@! TF.SameCoordinates,03EB8B32-1028-4CD5-B254-22B402A092A0*
G04*
G04*
G04 #@! TF.FilePolarity,Positive*
G04*
G01*
G75*
%ADD14C,0.2540*%
%ADD44C,0.5080*%
%ADD45C,1.5080*%
%ADD46R,1.5080X1.5080*%
%ADD47C,1.2000*%
%ADD48C,1.4000*%
%ADD49C,1.5000*%
%ADD50R,1.5000X1.5000*%
%ADD51R,1.2000X1.2000*%
%ADD52C,1.8150*%
%ADD53R,1.8150X1.8150*%
%ADD54C,1.4080*%
%ADD55R,1.4986X1.4986*%
%ADD56C,1.4986*%
%ADD57R,2.0000X2.0000*%
%ADD58C,2.0000*%
%ADD59C,1.2700*%
G36*
X1244600Y1033780D02*
Y341630D01*
X1211580Y308610D01*
X482600D01*
X453390Y337820D01*
X452120D01*
Y1033780D01*
X483870Y1065530D01*
X1212850D01*
X1244600Y1033780D01*
D02*
G37*
%LPC*%
G36*
X1017143Y1024763D02*
X997077D01*
Y1018615D01*
X961390D01*
X961339Y1018605D01*
X961288Y1018613D01*
X922580Y1017595D01*
X921670Y1018481D01*
Y1022000D01*
X904590D01*
Y1004920D01*
X921670D01*
Y1009799D01*
X961441Y1010845D01*
X997077D01*
Y1004697D01*
X1017143D01*
Y1010845D01*
X1025340D01*
X1025867Y1009575D01*
X1024482Y1008190D01*
X1023161Y1005903D01*
X1022477Y1003351D01*
Y1000709D01*
X1023161Y998157D01*
X1024482Y995870D01*
X1026350Y994002D01*
X1027220Y993499D01*
X1027386Y992240D01*
X966639Y931493D01*
X818374D01*
X818123Y932098D01*
X817946Y932763D01*
X819150Y934848D01*
X819800Y937274D01*
Y939786D01*
X819150Y942212D01*
X817894Y944388D01*
X816118Y946164D01*
X813942Y947420D01*
X811516Y948070D01*
X809004D01*
X806578Y947420D01*
X804402Y946164D01*
X802626Y944388D01*
X801370Y942212D01*
X800720Y939786D01*
Y937274D01*
X801370Y934848D01*
X802574Y932763D01*
X802397Y932098D01*
X802146Y931493D01*
X716774D01*
X716523Y932098D01*
X716346Y932763D01*
X717550Y934848D01*
X718200Y937274D01*
Y939786D01*
X717550Y942212D01*
X716294Y944388D01*
X714518Y946164D01*
X712342Y947420D01*
X709916Y948070D01*
X707404D01*
X704978Y947420D01*
X702802Y946164D01*
X701026Y944388D01*
X699887Y942415D01*
X663279D01*
X643950Y961743D01*
X644540Y963944D01*
Y966456D01*
X643890Y968882D01*
X642634Y971058D01*
X640858Y972834D01*
X638682Y974090D01*
X636256Y974740D01*
X633744D01*
X631318Y974090D01*
X629142Y972834D01*
X627366Y971058D01*
X626110Y968882D01*
X625460Y966456D01*
Y963944D01*
X626110Y961518D01*
X627366Y959342D01*
X629142Y957566D01*
X631318Y956310D01*
X633744Y955660D01*
X636256D01*
X638457Y956250D01*
X658923Y935783D01*
X660183Y934941D01*
X661670Y934645D01*
X699887D01*
X701026Y932672D01*
X702802Y930896D01*
X704053Y930174D01*
X704219Y928915D01*
X692451Y917147D01*
X691609Y915887D01*
X691313Y914400D01*
Y899160D01*
X691609Y897673D01*
X692451Y896413D01*
X710850Y878015D01*
X710192Y876876D01*
X709916Y876950D01*
X707404D01*
X704978Y876300D01*
X702802Y875044D01*
X701026Y873268D01*
X699770Y871092D01*
X699120Y868666D01*
Y866154D01*
X699770Y863728D01*
X701026Y861552D01*
X702802Y859776D01*
X704978Y858520D01*
X707404Y857870D01*
X709916D01*
X712342Y858520D01*
X714309Y859656D01*
X715576Y859228D01*
X715409Y837848D01*
X714135Y837326D01*
X713248Y838214D01*
X711072Y839470D01*
X708646Y840120D01*
X706134D01*
X703708Y839470D01*
X701532Y838214D01*
X699756Y836438D01*
X698500Y834262D01*
X697850Y831836D01*
Y829324D01*
X698440Y827123D01*
X613796Y742480D01*
X612040Y742950D01*
X609700D01*
X607439Y742344D01*
X605411Y741174D01*
X603756Y739519D01*
X602586Y737491D01*
X601980Y735230D01*
Y732890D01*
X602586Y730629D01*
X603756Y728601D01*
X605411Y726946D01*
X607439Y725776D01*
X609700Y725170D01*
X612040D01*
X614301Y725776D01*
X616329Y726946D01*
X617984Y728601D01*
X619154Y730629D01*
X619760Y732890D01*
Y735230D01*
X619290Y736986D01*
X703933Y821630D01*
X706134Y821040D01*
X708646D01*
X711072Y821690D01*
X713248Y822946D01*
X714029Y823728D01*
X715295Y823198D01*
X714936Y777016D01*
X714938Y777001D01*
X714935Y776986D01*
Y706120D01*
Y699855D01*
X560117Y545037D01*
X559275Y543777D01*
X558979Y542290D01*
Y427990D01*
X559275Y426503D01*
X560117Y425243D01*
X566213Y419147D01*
X567473Y418305D01*
X568960Y418009D01*
X734314D01*
X735801Y418305D01*
X737061Y419147D01*
X753010Y435096D01*
X754526Y434690D01*
X756774D01*
X758946Y435272D01*
X760894Y436396D01*
X762484Y437986D01*
X763608Y439934D01*
X764190Y442106D01*
Y444354D01*
X763608Y446526D01*
X762484Y448474D01*
X760894Y450064D01*
X758946Y451188D01*
X756774Y451770D01*
X754526D01*
X752354Y451188D01*
X750406Y450064D01*
X748816Y448474D01*
X747692Y446526D01*
X747110Y444354D01*
Y442106D01*
X747516Y440590D01*
X732705Y425779D01*
X716408D01*
X715778Y427049D01*
X716618Y428504D01*
X717161Y430530D01*
X708660D01*
Y431800D01*
D01*
Y430530D01*
X700159D01*
X700702Y428504D01*
X701542Y427049D01*
X700912Y425779D01*
X640208D01*
X639578Y427049D01*
X640418Y428504D01*
X641000Y430676D01*
Y432924D01*
X640418Y435096D01*
X639294Y437044D01*
X637704Y438634D01*
X635756Y439758D01*
X633584Y440340D01*
X631336D01*
X629820Y439934D01*
X571829Y497925D01*
Y510412D01*
X573099Y511042D01*
X574554Y510202D01*
X576726Y509620D01*
X578974D01*
X581146Y510202D01*
X583094Y511326D01*
X584684Y512916D01*
X585808Y514864D01*
X586390Y517036D01*
Y519284D01*
X585984Y520800D01*
X608919Y543735D01*
X609852Y542923D01*
X608682Y540895D01*
X608076Y538634D01*
Y536294D01*
X608682Y534033D01*
X609852Y532005D01*
X611507Y530350D01*
X613535Y529180D01*
X615796Y528574D01*
X618136D01*
X620397Y529180D01*
X622425Y530350D01*
X624080Y532005D01*
X624989Y533579D01*
X683744D01*
X685231Y533875D01*
X686491Y534717D01*
X777893Y626119D01*
X778750Y625625D01*
X781939Y624770D01*
X785241D01*
X788430Y625625D01*
X791290Y627275D01*
X793624Y629610D01*
X795275Y632470D01*
X795633Y633803D01*
X796947D01*
X797305Y632470D01*
X798956Y629610D01*
X801290Y627275D01*
X804150Y625625D01*
X807339Y624770D01*
X810641D01*
X813830Y625625D01*
X816690Y627275D01*
X819025Y629610D01*
X820675Y632470D01*
X821033Y633803D01*
X822347D01*
X822705Y632470D01*
X824355Y629610D01*
X826690Y627275D01*
X829550Y625625D01*
X832739Y624770D01*
X836041D01*
X839230Y625625D01*
X842090Y627275D01*
X844425Y629610D01*
X846075Y632470D01*
X846433Y633803D01*
X847747D01*
X848105Y632470D01*
X849755Y629610D01*
X852090Y627275D01*
X854950Y625625D01*
X858139Y624770D01*
X861441D01*
X864630Y625625D01*
X867490Y627275D01*
X869825Y629610D01*
X871475Y632470D01*
X871833Y633803D01*
X873147D01*
X873505Y632470D01*
X875155Y629610D01*
X877490Y627275D01*
X880350Y625625D01*
X883539Y624770D01*
X886841D01*
X890030Y625625D01*
X892890Y627275D01*
X895225Y629610D01*
X896875Y632470D01*
X897233Y633803D01*
X898547D01*
X898905Y632470D01*
X900555Y629610D01*
X902890Y627275D01*
X905750Y625625D01*
X908939Y624770D01*
X909320D01*
Y637310D01*
Y649850D01*
X908939D01*
X905750Y648995D01*
X902890Y647344D01*
X900555Y645010D01*
X898905Y642150D01*
X898547Y640817D01*
X897233D01*
X896875Y642150D01*
X896381Y643007D01*
X908873Y655499D01*
X1075944D01*
X1077431Y655795D01*
X1078691Y656637D01*
X1114960Y692906D01*
X1116476Y692500D01*
X1118724D01*
X1120896Y693082D01*
X1122844Y694206D01*
X1124434Y695796D01*
X1125558Y697744D01*
X1126140Y699916D01*
Y702164D01*
X1125558Y704336D01*
X1124434Y706284D01*
X1122844Y707874D01*
X1120896Y708998D01*
X1118724Y709580D01*
X1116476D01*
X1114304Y708998D01*
X1112356Y707874D01*
X1110766Y706284D01*
X1109642Y704336D01*
X1109060Y702164D01*
Y699916D01*
X1109466Y698400D01*
X1074335Y663269D01*
X907264D01*
X905778Y662973D01*
X904517Y662131D01*
X890887Y648501D01*
X890030Y648995D01*
X886841Y649850D01*
X883539D01*
X880350Y648995D01*
X879493Y648501D01*
X872975Y655019D01*
X871714Y655861D01*
X870228Y656157D01*
X711962D01*
X710475Y655861D01*
X709215Y655019D01*
X580490Y526294D01*
X578974Y526700D01*
X576726D01*
X574554Y526118D01*
X573099Y525278D01*
X571829Y525908D01*
Y534331D01*
X720429Y682931D01*
X906296D01*
X907783Y683227D01*
X909043Y684069D01*
X930293Y705319D01*
X931150Y704825D01*
X934339Y703970D01*
X937641D01*
X940830Y704825D01*
X943690Y706476D01*
X946024Y708810D01*
X947675Y711670D01*
X948033Y713003D01*
X949347D01*
X949705Y711670D01*
X951356Y708810D01*
X953690Y706476D01*
X956550Y704825D01*
X959739Y703970D01*
X963041D01*
X966230Y704825D01*
X969090Y706476D01*
X971424Y708810D01*
X973075Y711670D01*
X973433Y713003D01*
X974747D01*
X975105Y711670D01*
X976756Y708810D01*
X979090Y706476D01*
X981950Y704825D01*
X985139Y703970D01*
X988441D01*
X991630Y704825D01*
X994490Y706476D01*
X996824Y708810D01*
X998475Y711670D01*
X998833Y713003D01*
X1000147D01*
X1000505Y711670D01*
X1002156Y708810D01*
X1004490Y706476D01*
X1007350Y704825D01*
X1010539Y703970D01*
X1013841D01*
X1017030Y704825D01*
X1019890Y706476D01*
X1022225Y708810D01*
X1023875Y711670D01*
X1024233Y713003D01*
X1025547D01*
X1025905Y711670D01*
X1027555Y708810D01*
X1029890Y706476D01*
X1032750Y704825D01*
X1035939Y703970D01*
X1039241D01*
X1042430Y704825D01*
X1045290Y706476D01*
X1047625Y708810D01*
X1049275Y711670D01*
X1049633Y713003D01*
X1050947D01*
X1051305Y711670D01*
X1052955Y708810D01*
X1055290Y706476D01*
X1058150Y704825D01*
X1061339Y703970D01*
X1064641D01*
X1067830Y704825D01*
X1070690Y706476D01*
X1073025Y708810D01*
X1074675Y711670D01*
X1075530Y714859D01*
Y718161D01*
X1074675Y721350D01*
X1073025Y724210D01*
X1070690Y726545D01*
X1070485Y726663D01*
X1070814Y727889D01*
X1115483D01*
X1167055Y676317D01*
Y561223D01*
X1165082Y560084D01*
X1163306Y558308D01*
X1162050Y556132D01*
X1161400Y553706D01*
Y551194D01*
X1162050Y548768D01*
X1163306Y546592D01*
X1165082Y544816D01*
X1167258Y543560D01*
X1169684Y542910D01*
X1172196D01*
X1174622Y543560D01*
X1176798Y544816D01*
X1178574Y546592D01*
X1179830Y548768D01*
X1180480Y551194D01*
Y553706D01*
X1179830Y556132D01*
X1178574Y558308D01*
X1176798Y560084D01*
X1174825Y561223D01*
Y677926D01*
X1174529Y679413D01*
X1173687Y680673D01*
X1119839Y734521D01*
X1118579Y735363D01*
X1117092Y735659D01*
X849654D01*
X848167Y735363D01*
X846907Y734521D01*
X840087Y727701D01*
X839230Y728195D01*
X836041Y729050D01*
X832739D01*
X829550Y728195D01*
X826690Y726545D01*
X824355Y724210D01*
X822705Y721350D01*
X822347Y720017D01*
X821033D01*
X820675Y721350D01*
X820181Y722207D01*
X841103Y743129D01*
X1156344D01*
X1157830Y743425D01*
X1159090Y744267D01*
X1167954Y753130D01*
X1167959Y753127D01*
X1170523Y752440D01*
X1173177D01*
X1175741Y753127D01*
X1178039Y754454D01*
X1179916Y756331D01*
X1181243Y758630D01*
X1181930Y761193D01*
Y763278D01*
X1183200Y763804D01*
X1189915Y757089D01*
Y708658D01*
X1188556Y707874D01*
X1186966Y706284D01*
X1185842Y704336D01*
X1185299Y702310D01*
X1193800D01*
X1202301D01*
X1201758Y704336D01*
X1200634Y706284D01*
X1199044Y707874D01*
X1197685Y708658D01*
Y758698D01*
X1197389Y760185D01*
X1196547Y761445D01*
X1181307Y776685D01*
X1180047Y777527D01*
X1178560Y777823D01*
X1138268D01*
X1136781Y777527D01*
X1135521Y776685D01*
X1130746Y771910D01*
X1130740Y771913D01*
X1128177Y772600D01*
X1128120D01*
Y763790D01*
X1136930D01*
Y763847D01*
X1136243Y766411D01*
X1136240Y766416D01*
X1139876Y770053D01*
X1163468D01*
X1163954Y768880D01*
X1163784Y768709D01*
X1162457Y766411D01*
X1161770Y763847D01*
Y761193D01*
X1162457Y758630D01*
X1162460Y758624D01*
X1154735Y750899D01*
X1002028D01*
X1001502Y752169D01*
X1009264Y759930D01*
X1011020Y759460D01*
X1013360D01*
X1015621Y760066D01*
X1017649Y761236D01*
X1019304Y762891D01*
X1020474Y764919D01*
X1021080Y767180D01*
Y769520D01*
X1020474Y771781D01*
X1019304Y773809D01*
X1017649Y775464D01*
X1015621Y776634D01*
X1013360Y777240D01*
X1011020D01*
X1008759Y776634D01*
X1006731Y775464D01*
X1005076Y773809D01*
X1003906Y771781D01*
X1003300Y769520D01*
Y767180D01*
X1003770Y765424D01*
X996357Y758011D01*
X985784D01*
X985297Y759184D01*
X995527Y769413D01*
X996369Y770673D01*
X996665Y772160D01*
Y835676D01*
X996671Y835677D01*
X998969Y837004D01*
X1000846Y838881D01*
X1002173Y841180D01*
X1002175Y841186D01*
X1055781D01*
X1065455Y831511D01*
Y782203D01*
X1063482Y781064D01*
X1061706Y779288D01*
X1060450Y777112D01*
X1059800Y774686D01*
Y772174D01*
X1060450Y769748D01*
X1061706Y767572D01*
X1063482Y765796D01*
X1065658Y764540D01*
X1068084Y763890D01*
X1070596D01*
X1073022Y764540D01*
X1075198Y765796D01*
X1076974Y767572D01*
X1078230Y769748D01*
X1078880Y772174D01*
Y774686D01*
X1078230Y777112D01*
X1076974Y779288D01*
X1075198Y781064D01*
X1073225Y782203D01*
Y833120D01*
X1072929Y834607D01*
X1072087Y835867D01*
X1060137Y847817D01*
X1058876Y848659D01*
X1057390Y848955D01*
X1002175D01*
X1002173Y848961D01*
X1000846Y851259D01*
X998969Y853136D01*
X996671Y854463D01*
X994107Y855150D01*
X991453D01*
X988889Y854463D01*
X986591Y853136D01*
X984714Y851259D01*
X983387Y848961D01*
X982700Y846397D01*
Y843743D01*
X983387Y841180D01*
X984714Y838881D01*
X986591Y837004D01*
X988889Y835677D01*
X988895Y835676D01*
Y773769D01*
X978471Y763345D01*
X972281D01*
X972172Y763513D01*
X972580Y765209D01*
X973598Y765796D01*
X975374Y767572D01*
X976630Y769748D01*
X977280Y772174D01*
Y774686D01*
X976630Y777112D01*
X975374Y779288D01*
X973598Y781064D01*
X971422Y782320D01*
X968996Y782970D01*
X966484D01*
X964283Y782380D01*
X957787Y788877D01*
X956527Y789719D01*
X955040Y790015D01*
X911721D01*
X910470Y790060D01*
X910470Y791285D01*
Y808407D01*
X963273D01*
X964182Y806833D01*
X965837Y805178D01*
X967865Y804008D01*
X970126Y803402D01*
X972466D01*
X974727Y804008D01*
X976755Y805178D01*
X978410Y806833D01*
X979580Y808861D01*
X980186Y811122D01*
Y813462D01*
X979580Y815723D01*
X978410Y817751D01*
X976755Y819406D01*
X974727Y820576D01*
X972466Y821182D01*
X970126D01*
X967865Y820576D01*
X965837Y819406D01*
X964182Y817751D01*
X963273Y816177D01*
X887222D01*
X885735Y815881D01*
X884475Y815039D01*
X878895Y809459D01*
X876352Y810140D01*
X873708D01*
X871155Y809456D01*
X868865Y808134D01*
X866996Y806265D01*
X865674Y803975D01*
X864990Y801422D01*
Y798778D01*
X865674Y796225D01*
X866996Y793935D01*
X868865Y792066D01*
X870219Y791285D01*
X869878Y790015D01*
X865209D01*
X858989Y796235D01*
X859670Y798778D01*
Y801422D01*
X858986Y803975D01*
X857664Y806265D01*
X855795Y808134D01*
X853505Y809456D01*
X850952Y810140D01*
X848308D01*
X845755Y809456D01*
X843465Y808134D01*
X841596Y806265D01*
X840274Y803975D01*
X839590Y801422D01*
Y798778D01*
X840274Y796225D01*
X841596Y793935D01*
X843465Y792066D01*
X845755Y790744D01*
X848308Y790060D01*
X850952D01*
X853495Y790741D01*
X860853Y783383D01*
X862113Y782541D01*
X863600Y782245D01*
X866717D01*
X867203Y781072D01*
X866996Y780865D01*
X865674Y778575D01*
X864990Y776022D01*
Y773378D01*
X865674Y770825D01*
X866996Y768535D01*
X868865Y766666D01*
X871155Y765344D01*
X873708Y764660D01*
X876352D01*
X878895Y765341D01*
X892068Y752169D01*
X891542Y750899D01*
X839494D01*
X838007Y750603D01*
X836747Y749761D01*
X814687Y727701D01*
X813830Y728195D01*
X810641Y729050D01*
X807339D01*
X804150Y728195D01*
X801290Y726545D01*
X798956Y724210D01*
X797305Y721350D01*
X796947Y720017D01*
X795633D01*
X795275Y721350D01*
X793624Y724210D01*
X791290Y726545D01*
X788430Y728195D01*
X785241Y729050D01*
X781939D01*
X778750Y728195D01*
X775890Y726545D01*
X773556Y724210D01*
X771905Y721350D01*
X771547Y720017D01*
X770233D01*
X769875Y721350D01*
X768224Y724210D01*
X765890Y726545D01*
X763030Y728195D01*
X759841Y729050D01*
X756539D01*
X753350Y728195D01*
X750490Y726545D01*
X748156Y724210D01*
X746505Y721350D01*
X746147Y720017D01*
X744833D01*
X744475Y721350D01*
X742824Y724210D01*
X740490Y726545D01*
X737630Y728195D01*
X734441Y729050D01*
X731139D01*
X727950Y728195D01*
X725090Y726545D01*
X723975Y725429D01*
X722705Y725955D01*
Y776972D01*
X723466Y874746D01*
X723464Y874761D01*
X723467Y874776D01*
X723322Y875505D01*
X723182Y876235D01*
X723174Y876247D01*
X723171Y876263D01*
X722758Y876881D01*
X722350Y877501D01*
X722337Y877510D01*
X722329Y877523D01*
X706325Y893527D01*
X706811Y894700D01*
X707376D01*
X709802Y895350D01*
X711978Y896606D01*
X713754Y898382D01*
X714893Y900355D01*
X771821D01*
X801310Y870867D01*
X800724Y868680D01*
X808990D01*
Y876946D01*
X806803Y876360D01*
X776177Y906987D01*
X774917Y907829D01*
X773430Y908125D01*
X714893D01*
X713754Y910098D01*
X711978Y911874D01*
X709802Y913130D01*
X707390Y913776D01*
Y904240D01*
X704850D01*
Y913776D01*
X702438Y913130D01*
X701260Y912450D01*
X699934Y912823D01*
X699727Y913031D01*
X699745Y913454D01*
X710015Y923723D01*
X820050D01*
X820536Y922550D01*
X811177Y913190D01*
X808976Y913780D01*
X806464D01*
X804038Y913130D01*
X801862Y911874D01*
X800086Y910098D01*
X798830Y907922D01*
X798180Y905496D01*
Y902984D01*
X798830Y900558D01*
X800086Y898382D01*
X801862Y896606D01*
X804038Y895350D01*
X806464Y894700D01*
X808976D01*
X811402Y895350D01*
X813578Y896606D01*
X815354Y898382D01*
X816610Y900558D01*
X817260Y902984D01*
Y905496D01*
X816670Y907697D01*
X827617Y918643D01*
X940301D01*
X940827Y917373D01*
X939714Y916260D01*
X938387Y913961D01*
X937700Y911397D01*
Y911340D01*
X947780D01*
X957860D01*
Y911397D01*
X957173Y913961D01*
X955846Y916260D01*
X954732Y917373D01*
X955258Y918643D01*
X978713D01*
X982700Y914657D01*
Y901521D01*
X961823D01*
X957170Y906174D01*
X957173Y906180D01*
X957860Y908743D01*
Y908800D01*
X949050D01*
Y899990D01*
X949107D01*
X951670Y900677D01*
X951676Y900680D01*
X957467Y894889D01*
X958727Y894047D01*
X960214Y893751D01*
X1089796D01*
X1091283Y894047D01*
X1092543Y894889D01*
X1094640Y896986D01*
X1096010Y896619D01*
Y903850D01*
X1088779D01*
X1089146Y902480D01*
X1088187Y901521D01*
X1002860D01*
Y920150D01*
X988194D01*
X983069Y925275D01*
X981809Y926117D01*
X980322Y926413D01*
X974206D01*
X973720Y927586D01*
X1035257Y989123D01*
X1036099Y990383D01*
X1036395Y991870D01*
Y992688D01*
X1038670Y994002D01*
X1040538Y995870D01*
X1041859Y998157D01*
X1042543Y1000709D01*
Y1003351D01*
X1041859Y1005903D01*
X1040538Y1008190D01*
X1039153Y1009575D01*
X1039679Y1010845D01*
X1059721D01*
X1088330Y982236D01*
X1087740Y980036D01*
Y977524D01*
X1088390Y975098D01*
X1089646Y972922D01*
X1091422Y971146D01*
X1093598Y969890D01*
X1096024Y969240D01*
X1098536D01*
X1100962Y969890D01*
X1103138Y971146D01*
X1104914Y972922D01*
X1106170Y975098D01*
X1106820Y977524D01*
Y980036D01*
X1106170Y982462D01*
X1104914Y984638D01*
X1103138Y986414D01*
X1100962Y987670D01*
X1098536Y988320D01*
X1096024D01*
X1093823Y987730D01*
X1064077Y1017477D01*
X1062816Y1018319D01*
X1061330Y1018615D01*
X1017143D01*
Y1024763D01*
D02*
G37*
G36*
X720090Y1016881D02*
Y1009650D01*
X727321D01*
X726778Y1011676D01*
X725654Y1013624D01*
X724064Y1015214D01*
X722116Y1016338D01*
X720090Y1016881D01*
D02*
G37*
G36*
X717550D02*
X715524Y1016338D01*
X713576Y1015214D01*
X711986Y1013624D01*
X710862Y1011676D01*
X710319Y1009650D01*
X717550D01*
Y1016881D01*
D02*
G37*
G36*
X727321Y1007110D02*
X720090D01*
Y999879D01*
X722116Y1000422D01*
X724064Y1001546D01*
X725654Y1003136D01*
X726778Y1005084D01*
X727321Y1007110D01*
D02*
G37*
G36*
X717550D02*
X710319D01*
X710862Y1005084D01*
X711986Y1003136D01*
X713576Y1001546D01*
X715524Y1000422D01*
X717550Y999879D01*
Y1007110D01*
D02*
G37*
G36*
X796144Y1016920D02*
X793896D01*
X791724Y1016338D01*
X789776Y1015214D01*
X788186Y1013624D01*
X787062Y1011676D01*
X786480Y1009504D01*
Y1007256D01*
X786886Y1005740D01*
X772075Y990929D01*
X638322D01*
X637981Y992199D01*
X639588Y993126D01*
X641364Y994902D01*
X642620Y997078D01*
X643270Y999504D01*
Y1002016D01*
X642620Y1004442D01*
X641364Y1006618D01*
X639588Y1008394D01*
X637412Y1009650D01*
X634986Y1010300D01*
X632474D01*
X630048Y1009650D01*
X627872Y1008394D01*
X626096Y1006618D01*
X624840Y1004442D01*
X624190Y1002016D01*
Y999504D01*
X624840Y997078D01*
X626096Y994902D01*
X627872Y993126D01*
X629479Y992199D01*
X629138Y990929D01*
X547455D01*
X541080Y997303D01*
X541670Y999504D01*
Y1002016D01*
X541020Y1004442D01*
X539764Y1006618D01*
X537988Y1008394D01*
X535812Y1009650D01*
X533386Y1010300D01*
X530874D01*
X528448Y1009650D01*
X526272Y1008394D01*
X524496Y1006618D01*
X523240Y1004442D01*
X522590Y1002016D01*
Y999504D01*
X523240Y997078D01*
X524496Y994902D01*
X526272Y993126D01*
X528448Y991870D01*
X530874Y991220D01*
X533386D01*
X535587Y991810D01*
X543099Y984297D01*
X544359Y983455D01*
X545846Y983159D01*
X773684D01*
X775171Y983455D01*
X776431Y984297D01*
X792380Y1000246D01*
X793896Y999840D01*
X796144D01*
X798316Y1000422D01*
X800264Y1001546D01*
X801854Y1003136D01*
X802978Y1005084D01*
X803560Y1007256D01*
Y1009504D01*
X802978Y1011676D01*
X801854Y1013624D01*
X800264Y1015214D01*
X798316Y1016338D01*
X796144Y1016920D01*
D02*
G37*
G36*
X1008431Y999363D02*
X1008380D01*
Y990600D01*
X1017143D01*
Y990651D01*
X1016459Y993203D01*
X1015138Y995490D01*
X1013270Y997358D01*
X1010983Y998679D01*
X1008431Y999363D01*
D02*
G37*
G36*
X1005840D02*
X1005789D01*
X1003237Y998679D01*
X1000950Y997358D01*
X999082Y995490D01*
X997768Y993215D01*
X924000D01*
X922514Y992919D01*
X921253Y992077D01*
X915770Y986594D01*
X914400Y986961D01*
Y979730D01*
X921631D01*
X921264Y981100D01*
X925609Y985445D01*
X997768D01*
X999082Y983170D01*
X1000950Y981302D01*
X1003237Y979981D01*
X1005789Y979297D01*
X1005840D01*
Y989330D01*
X1007110D01*
D01*
X1005840D01*
Y999363D01*
D02*
G37*
G36*
X911860Y986961D02*
X909834Y986418D01*
X907886Y985294D01*
X906296Y983704D01*
X905172Y981756D01*
X904629Y979730D01*
X911860D01*
Y986961D01*
D02*
G37*
G36*
X1017143Y988060D02*
X1008380D01*
Y979297D01*
X1008431D01*
X1010983Y979981D01*
X1013270Y981302D01*
X1015138Y983170D01*
X1016459Y985457D01*
X1017143Y988009D01*
Y988060D01*
D02*
G37*
G36*
X921631Y977190D02*
X914400D01*
Y969959D01*
X916426Y970502D01*
X918374Y971626D01*
X919964Y973216D01*
X921088Y975163D01*
X921631Y977190D01*
D02*
G37*
G36*
X911860D02*
X904629D01*
X905172Y975163D01*
X906296Y973216D01*
X907886Y971626D01*
X909834Y970502D01*
X911860Y969959D01*
Y977190D01*
D02*
G37*
G36*
X1200136Y988320D02*
X1197624D01*
X1195198Y987670D01*
X1193022Y986414D01*
X1191246Y984638D01*
X1189990Y982462D01*
X1189340Y980036D01*
Y977524D01*
X1189990Y975098D01*
X1191246Y972922D01*
X1193022Y971146D01*
X1195198Y969890D01*
X1197624Y969240D01*
X1200136D01*
X1202562Y969890D01*
X1204738Y971146D01*
X1206514Y972922D01*
X1207770Y975098D01*
X1208420Y977524D01*
Y980036D01*
X1207770Y982462D01*
X1206514Y984638D01*
X1204738Y986414D01*
X1202562Y987670D01*
X1200136Y988320D01*
D02*
G37*
G36*
X534656Y974740D02*
X532144D01*
X529718Y974090D01*
X527542Y972834D01*
X525766Y971058D01*
X524510Y968882D01*
X523860Y966456D01*
Y963944D01*
X524510Y961518D01*
X525766Y959342D01*
X527542Y957566D01*
X529718Y956310D01*
X532144Y955660D01*
X534656D01*
X537082Y956310D01*
X539258Y957566D01*
X541034Y959342D01*
X542290Y961518D01*
X542940Y963944D01*
Y966456D01*
X542290Y968882D01*
X541034Y971058D01*
X539258Y972834D01*
X537082Y974090D01*
X534656Y974740D01*
D02*
G37*
G36*
X636256Y939180D02*
X633744D01*
X631318Y938530D01*
X629142Y937274D01*
X627366Y935498D01*
X626110Y933322D01*
X625460Y930896D01*
Y928384D01*
X626110Y925958D01*
X627366Y923782D01*
X629142Y922006D01*
X631318Y920750D01*
X633744Y920100D01*
X636256D01*
X638682Y920750D01*
X640858Y922006D01*
X642634Y923782D01*
X643890Y925958D01*
X644540Y928384D01*
Y930896D01*
X643890Y933322D01*
X642634Y935498D01*
X640858Y937274D01*
X638682Y938530D01*
X636256Y939180D01*
D02*
G37*
G36*
X534656D02*
X532144D01*
X529718Y938530D01*
X527542Y937274D01*
X525766Y935498D01*
X524510Y933322D01*
X523860Y930896D01*
Y928384D01*
X524510Y925958D01*
X525766Y923782D01*
X527542Y922006D01*
X529718Y920750D01*
X532144Y920100D01*
X534656D01*
X537082Y920750D01*
X539258Y922006D01*
X541034Y923782D01*
X542290Y925958D01*
X542940Y928384D01*
Y930896D01*
X542290Y933322D01*
X541034Y935498D01*
X539258Y937274D01*
X537082Y938530D01*
X534656Y939180D01*
D02*
G37*
G36*
X1098550Y913621D02*
Y906390D01*
X1105781D01*
X1105238Y908416D01*
X1104114Y910363D01*
X1102524Y911954D01*
X1100576Y913078D01*
X1098550Y913621D01*
D02*
G37*
G36*
X1096010D02*
X1093984Y913078D01*
X1092036Y911954D01*
X1090446Y910363D01*
X1089322Y908416D01*
X1088779Y906390D01*
X1096010D01*
Y913621D01*
D02*
G37*
G36*
X946510Y908800D02*
X937700D01*
Y908743D01*
X938387Y906180D01*
X939714Y903881D01*
X941590Y902004D01*
X943889Y900677D01*
X946453Y899990D01*
X946510D01*
Y908800D01*
D02*
G37*
G36*
X1105781Y903850D02*
X1098550D01*
Y896619D01*
X1100576Y897162D01*
X1102524Y898286D01*
X1104114Y899876D01*
X1105238Y901824D01*
X1105781Y903850D01*
D02*
G37*
G36*
X1174604Y913660D02*
X1172356D01*
X1170184Y913078D01*
X1168236Y911954D01*
X1166646Y910363D01*
X1165522Y908416D01*
X1164940Y906244D01*
Y903996D01*
X1165522Y901824D01*
X1166646Y899876D01*
X1168236Y898286D01*
X1170184Y897162D01*
X1172356Y896580D01*
X1174604D01*
X1176776Y897162D01*
X1178724Y898286D01*
X1180314Y899876D01*
X1181438Y901824D01*
X1182020Y903996D01*
Y906244D01*
X1181438Y908416D01*
X1180314Y910363D01*
X1178724Y911954D01*
X1176776Y913078D01*
X1174604Y913660D01*
D02*
G37*
G36*
X636256Y907430D02*
X633744D01*
X631318Y906780D01*
X629142Y905524D01*
X627366Y903748D01*
X626110Y901572D01*
X625460Y899146D01*
Y896634D01*
X626110Y894208D01*
X627366Y892032D01*
X629142Y890256D01*
X631318Y889000D01*
X633744Y888350D01*
X636256D01*
X638682Y889000D01*
X640858Y890256D01*
X642634Y892032D01*
X643890Y894208D01*
X644540Y896634D01*
Y899146D01*
X643890Y901572D01*
X642634Y903748D01*
X640858Y905524D01*
X638682Y906780D01*
X636256Y907430D01*
D02*
G37*
G36*
X534656D02*
X532144D01*
X529718Y906780D01*
X527542Y905524D01*
X525766Y903748D01*
X524510Y901572D01*
X523860Y899146D01*
Y896634D01*
X524510Y894208D01*
X525766Y892032D01*
X527542Y890256D01*
X529718Y889000D01*
X532144Y888350D01*
X534656D01*
X537082Y889000D01*
X539258Y890256D01*
X541034Y892032D01*
X542290Y894208D01*
X542940Y896634D01*
Y899146D01*
X542290Y901572D01*
X541034Y903748D01*
X539258Y905524D01*
X537082Y906780D01*
X534656Y907430D01*
D02*
G37*
G36*
X808990Y866140D02*
X800724D01*
X801370Y863728D01*
X802626Y861552D01*
X804402Y859776D01*
X806578Y858520D01*
X808990Y857874D01*
Y866140D01*
D02*
G37*
G36*
X636256Y871870D02*
X633744D01*
X631318Y871220D01*
X629142Y869964D01*
X627366Y868188D01*
X626110Y866012D01*
X625460Y863586D01*
Y861074D01*
X626110Y858648D01*
X627366Y856472D01*
X629142Y854696D01*
X631318Y853440D01*
X633744Y852790D01*
X636256D01*
X638682Y853440D01*
X640858Y854696D01*
X642634Y856472D01*
X643890Y858648D01*
X644540Y861074D01*
Y863586D01*
X643890Y866012D01*
X642634Y868188D01*
X640858Y869964D01*
X638682Y871220D01*
X636256Y871870D01*
D02*
G37*
G36*
X534656D02*
X532144D01*
X529718Y871220D01*
X527542Y869964D01*
X525766Y868188D01*
X524510Y866012D01*
X523860Y863586D01*
Y861074D01*
X524510Y858648D01*
X525766Y856472D01*
X527542Y854696D01*
X529718Y853440D01*
X532144Y852790D01*
X534656D01*
X537082Y853440D01*
X539258Y854696D01*
X541034Y856472D01*
X542290Y858648D01*
X542940Y861074D01*
Y863586D01*
X542290Y866012D01*
X541034Y868188D01*
X539258Y869964D01*
X537082Y871220D01*
X534656Y871870D01*
D02*
G37*
G36*
X949107Y855150D02*
X949050D01*
Y846340D01*
X957860D01*
Y846397D01*
X957173Y848961D01*
X955846Y851259D01*
X953969Y853136D01*
X951670Y854463D01*
X949107Y855150D01*
D02*
G37*
G36*
X811530Y876946D02*
Y867410D01*
Y857874D01*
X813942Y858520D01*
X816118Y859776D01*
X817894Y861552D01*
X819033Y863525D01*
X923831D01*
X938390Y848966D01*
X938387Y848961D01*
X937700Y846397D01*
Y846340D01*
X946510D01*
Y855150D01*
X946453D01*
X943889Y854463D01*
X943884Y854460D01*
X928187Y870157D01*
X926926Y870999D01*
X925440Y871295D01*
X819033D01*
X817894Y873268D01*
X816118Y875044D01*
X813942Y876300D01*
X811530Y876946D01*
D02*
G37*
G36*
X957860Y843800D02*
X949050D01*
Y834990D01*
X949107D01*
X951670Y835677D01*
X953969Y837004D01*
X955846Y838881D01*
X957173Y841180D01*
X957860Y843743D01*
Y843800D01*
D02*
G37*
G36*
X946510D02*
X937700D01*
Y843743D01*
X938387Y841180D01*
X939714Y838881D01*
X941590Y837004D01*
X943889Y835677D01*
X946453Y834990D01*
X946510D01*
Y843800D01*
D02*
G37*
G36*
X1128177Y837600D02*
X1128120D01*
Y828790D01*
X1136930D01*
Y828847D01*
X1136243Y831411D01*
X1134916Y833710D01*
X1133039Y835586D01*
X1130740Y836913D01*
X1128177Y837600D01*
D02*
G37*
G36*
X1125580D02*
X1125523D01*
X1122959Y836913D01*
X1120660Y835586D01*
X1118784Y833710D01*
X1117457Y831411D01*
X1116770Y828847D01*
Y828790D01*
X1125580D01*
Y837600D01*
D02*
G37*
G36*
X810246Y840120D02*
X807734D01*
X805308Y839470D01*
X803132Y838214D01*
X801356Y836438D01*
X800100Y834262D01*
X799450Y831836D01*
Y829324D01*
X800100Y826898D01*
X801356Y824722D01*
X803132Y822946D01*
X805308Y821690D01*
X807734Y821040D01*
X810246D01*
X812672Y821690D01*
X814848Y822946D01*
X816624Y824722D01*
X817880Y826898D01*
X818530Y829324D01*
Y831836D01*
X817880Y834262D01*
X816624Y836438D01*
X814848Y838214D01*
X812672Y839470D01*
X810246Y840120D01*
D02*
G37*
G36*
X1181930Y837600D02*
X1161770D01*
Y817440D01*
X1181930D01*
Y837600D01*
D02*
G37*
G36*
X1136930Y826250D02*
X1128120D01*
Y817440D01*
X1128177D01*
X1130740Y818127D01*
X1133039Y819454D01*
X1134916Y821331D01*
X1136243Y823630D01*
X1136930Y826193D01*
Y826250D01*
D02*
G37*
G36*
X1125580D02*
X1116770D01*
Y826193D01*
X1117457Y823630D01*
X1118784Y821331D01*
X1120660Y819454D01*
X1122959Y818127D01*
X1125523Y817440D01*
X1125580D01*
Y826250D01*
D02*
G37*
G36*
X634986Y835040D02*
X632474D01*
X630048Y834390D01*
X627872Y833134D01*
X626096Y831358D01*
X624840Y829182D01*
X624190Y826756D01*
Y824244D01*
X624840Y821818D01*
X626096Y819642D01*
X627872Y817866D01*
X630048Y816610D01*
X632474Y815960D01*
X634986D01*
X637412Y816610D01*
X639588Y817866D01*
X641364Y819642D01*
X642620Y821818D01*
X643270Y824244D01*
Y826756D01*
X642620Y829182D01*
X641364Y831358D01*
X639588Y833134D01*
X637412Y834390D01*
X634986Y835040D01*
D02*
G37*
G36*
X533386D02*
X530874D01*
X528448Y834390D01*
X526272Y833134D01*
X524496Y831358D01*
X523240Y829182D01*
X522590Y826756D01*
Y824244D01*
X523240Y821818D01*
X524496Y819642D01*
X526272Y817866D01*
X528448Y816610D01*
X530874Y815960D01*
X533386D01*
X535812Y816610D01*
X537988Y817866D01*
X539764Y819642D01*
X541020Y821818D01*
X541670Y824244D01*
Y826756D01*
X541020Y829182D01*
X539764Y831358D01*
X537988Y833134D01*
X535812Y834390D01*
X533386Y835040D01*
D02*
G37*
G36*
X850952Y784740D02*
X850900D01*
Y775970D01*
X859670D01*
Y776022D01*
X858986Y778575D01*
X857664Y780865D01*
X855795Y782734D01*
X853505Y784056D01*
X850952Y784740D01*
D02*
G37*
G36*
X848360D02*
X848308D01*
X845755Y784056D01*
X843465Y782734D01*
X841596Y780865D01*
X840274Y778575D01*
X839590Y776022D01*
Y775970D01*
X848360D01*
Y784740D01*
D02*
G37*
G36*
X859670Y773430D02*
X850900D01*
Y764660D01*
X850952D01*
X853505Y765344D01*
X855795Y766666D01*
X857664Y768535D01*
X858986Y770825D01*
X859670Y773378D01*
Y773430D01*
D02*
G37*
G36*
X848360D02*
X839590D01*
Y773378D01*
X840274Y770825D01*
X841596Y768535D01*
X843465Y766666D01*
X845755Y765344D01*
X848308Y764660D01*
X848360D01*
Y773430D01*
D02*
G37*
G36*
X1125580Y772600D02*
X1125523D01*
X1122959Y771913D01*
X1120660Y770586D01*
X1118784Y768709D01*
X1117457Y766411D01*
X1116770Y763847D01*
Y763790D01*
X1125580D01*
Y772600D01*
D02*
G37*
G36*
X1136930Y761250D02*
X1128120D01*
Y752440D01*
X1128177D01*
X1130740Y753127D01*
X1133039Y754454D01*
X1134916Y756331D01*
X1136243Y758630D01*
X1136930Y761193D01*
Y761250D01*
D02*
G37*
G36*
X1125580D02*
X1116770D01*
Y761193D01*
X1117457Y758630D01*
X1118784Y756331D01*
X1120660Y754454D01*
X1122959Y753127D01*
X1125523Y752440D01*
X1125580D01*
Y761250D01*
D02*
G37*
G36*
X1202301Y699770D02*
X1195070D01*
Y692539D01*
X1197096Y693082D01*
X1199044Y694206D01*
X1200634Y695796D01*
X1201758Y697744D01*
X1202301Y699770D01*
D02*
G37*
G36*
X1192530D02*
X1185299D01*
X1185842Y697744D01*
X1186966Y695796D01*
X1188556Y694206D01*
X1190504Y693082D01*
X1192530Y692539D01*
Y699770D01*
D02*
G37*
G36*
X502920Y668123D02*
Y660530D01*
X510513D01*
X509934Y662691D01*
X508764Y664719D01*
X507109Y666374D01*
X505081Y667544D01*
X502920Y668123D01*
D02*
G37*
G36*
X500380D02*
X498219Y667544D01*
X496191Y666374D01*
X494536Y664719D01*
X493366Y662691D01*
X492787Y660530D01*
X500380D01*
Y668123D01*
D02*
G37*
G36*
X1064641Y649850D02*
X1061339D01*
X1058150Y648995D01*
X1055290Y647344D01*
X1052955Y645010D01*
X1051305Y642150D01*
X1050947Y640817D01*
X1049633D01*
X1049275Y642150D01*
X1047625Y645010D01*
X1045290Y647344D01*
X1042430Y648995D01*
X1039241Y649850D01*
X1035939D01*
X1032750Y648995D01*
X1029890Y647344D01*
X1027555Y645010D01*
X1025905Y642150D01*
X1025547Y640817D01*
X1024233D01*
X1023875Y642150D01*
X1022225Y645010D01*
X1019890Y647344D01*
X1017030Y648995D01*
X1013841Y649850D01*
X1010539D01*
X1007350Y648995D01*
X1004490Y647344D01*
X1002156Y645010D01*
X1000505Y642150D01*
X1000147Y640817D01*
X998833D01*
X998475Y642150D01*
X996824Y645010D01*
X994490Y647344D01*
X991630Y648995D01*
X988441Y649850D01*
X985139D01*
X981950Y648995D01*
X979090Y647344D01*
X976756Y645010D01*
X975105Y642150D01*
X974747Y640817D01*
X973433D01*
X973075Y642150D01*
X971424Y645010D01*
X969090Y647344D01*
X966230Y648995D01*
X963041Y649850D01*
X959739D01*
X956550Y648995D01*
X953690Y647344D01*
X951356Y645010D01*
X949705Y642150D01*
X949347Y640817D01*
X948033D01*
X947675Y642150D01*
X946024Y645010D01*
X943690Y647344D01*
X940830Y648995D01*
X937641Y649850D01*
X934339D01*
X931150Y648995D01*
X928290Y647344D01*
X925956Y645010D01*
X924305Y642150D01*
X923947Y640817D01*
X922633D01*
X922275Y642150D01*
X920624Y645010D01*
X918290Y647344D01*
X915430Y648995D01*
X912241Y649850D01*
X911860D01*
Y637310D01*
Y624770D01*
X912241D01*
X915430Y625625D01*
X918290Y627275D01*
X920624Y629610D01*
X922275Y632470D01*
X922633Y633803D01*
X923947D01*
X924305Y632470D01*
X925956Y629610D01*
X928290Y627275D01*
X931150Y625625D01*
X934339Y624770D01*
X937641D01*
X940830Y625625D01*
X943690Y627275D01*
X946024Y629610D01*
X947675Y632470D01*
X948033Y633803D01*
X949347D01*
X949705Y632470D01*
X951356Y629610D01*
X953690Y627275D01*
X956550Y625625D01*
X959739Y624770D01*
X963041D01*
X966230Y625625D01*
X969090Y627275D01*
X971424Y629610D01*
X973075Y632470D01*
X973433Y633803D01*
X974747D01*
X975105Y632470D01*
X976756Y629610D01*
X979090Y627275D01*
X981950Y625625D01*
X982905Y625368D01*
Y611209D01*
X829081Y457385D01*
X811345D01*
Y434155D01*
X834575D01*
Y451891D01*
X989537Y606853D01*
X990379Y608113D01*
X990675Y609600D01*
Y625368D01*
X991630Y625625D01*
X994490Y627275D01*
X996824Y629610D01*
X998475Y632470D01*
X998833Y633803D01*
X1000147D01*
X1000505Y632470D01*
X1002156Y629610D01*
X1004490Y627275D01*
X1007350Y625625D01*
X1010539Y624770D01*
X1013841D01*
X1017030Y625625D01*
X1019890Y627275D01*
X1022225Y629610D01*
X1023875Y632470D01*
X1024233Y633803D01*
X1025547D01*
X1025905Y632470D01*
X1027555Y629610D01*
X1029890Y627275D01*
X1032750Y625625D01*
X1035939Y624770D01*
X1039241D01*
X1042430Y625625D01*
X1045290Y627275D01*
X1047625Y629610D01*
X1049275Y632470D01*
X1049633Y633803D01*
X1050947D01*
X1051305Y632470D01*
X1052955Y629610D01*
X1055290Y627275D01*
X1058150Y625625D01*
X1061339Y624770D01*
X1064641D01*
X1067830Y625625D01*
X1070690Y627275D01*
X1073025Y629610D01*
X1074675Y632470D01*
X1075530Y635659D01*
Y638961D01*
X1074675Y642150D01*
X1073025Y645010D01*
X1070690Y647344D01*
X1067830Y648995D01*
X1064641Y649850D01*
D02*
G37*
G36*
X1070596Y561990D02*
X1068084D01*
X1065658Y561340D01*
X1063482Y560084D01*
X1061706Y558308D01*
X1060450Y556132D01*
X1059800Y553706D01*
Y551194D01*
X1060450Y548768D01*
X1061706Y546592D01*
X1063482Y544816D01*
X1065658Y543560D01*
X1068084Y542910D01*
X1070596D01*
X1073022Y543560D01*
X1075198Y544816D01*
X1076974Y546592D01*
X1078230Y548768D01*
X1078880Y551194D01*
Y553706D01*
X1078230Y556132D01*
X1076974Y558308D01*
X1075198Y560084D01*
X1073022Y561340D01*
X1070596Y561990D01*
D02*
G37*
G36*
X756920Y527931D02*
Y520700D01*
X764151D01*
X763608Y522726D01*
X762484Y524674D01*
X760894Y526264D01*
X758946Y527388D01*
X756920Y527931D01*
D02*
G37*
G36*
X754380D02*
X752354Y527388D01*
X750406Y526264D01*
X748816Y524674D01*
X747692Y522726D01*
X747149Y520700D01*
X754380D01*
Y527931D01*
D02*
G37*
G36*
X510513Y657990D02*
X492787D01*
X493366Y655829D01*
X494536Y653801D01*
X496191Y652146D01*
X497765Y651238D01*
Y525778D01*
X496406Y524994D01*
X494816Y523404D01*
X493692Y521456D01*
X493149Y519430D01*
X510151D01*
X509608Y521456D01*
X508484Y523404D01*
X506894Y524994D01*
X505535Y525778D01*
Y651238D01*
X507109Y652146D01*
X508764Y653801D01*
X509934Y655829D01*
X510513Y657990D01*
D02*
G37*
G36*
X707244Y530510D02*
X704996D01*
X702824Y529928D01*
X700876Y528804D01*
X699286Y527214D01*
X698162Y525266D01*
X697580Y523094D01*
Y520846D01*
X698162Y518674D01*
X699286Y516726D01*
X700876Y515136D01*
X702824Y514012D01*
X704996Y513430D01*
X707244D01*
X709416Y514012D01*
X711364Y515136D01*
X712954Y516726D01*
X714078Y518674D01*
X714660Y520846D01*
Y523094D01*
X714078Y525266D01*
X712954Y527214D01*
X711364Y528804D01*
X709416Y529928D01*
X707244Y530510D01*
D02*
G37*
G36*
X631044D02*
X628796D01*
X626624Y529928D01*
X624676Y528804D01*
X623086Y527214D01*
X621962Y525266D01*
X621380Y523094D01*
Y520846D01*
X621962Y518674D01*
X623086Y516726D01*
X624676Y515136D01*
X626624Y514012D01*
X628796Y513430D01*
X631044D01*
X633216Y514012D01*
X635164Y515136D01*
X636754Y516726D01*
X637878Y518674D01*
X638460Y520846D01*
Y523094D01*
X637878Y525266D01*
X636754Y527214D01*
X635164Y528804D01*
X633216Y529928D01*
X631044Y530510D01*
D02*
G37*
G36*
X764151Y518160D02*
X756920D01*
Y510929D01*
X758946Y511472D01*
X760894Y512596D01*
X762484Y514186D01*
X763608Y516134D01*
X764151Y518160D01*
D02*
G37*
G36*
X754380D02*
X747149D01*
X747692Y516134D01*
X748816Y514186D01*
X750406Y512596D01*
X752354Y511472D01*
X754380Y510929D01*
Y518160D01*
D02*
G37*
G36*
X510151Y516890D02*
X502920D01*
Y509659D01*
X504946Y510202D01*
X506894Y511326D01*
X508484Y512916D01*
X509608Y514864D01*
X510151Y516890D01*
D02*
G37*
G36*
X500380D02*
X493149D01*
X493692Y514864D01*
X494816Y512916D01*
X496406Y511326D01*
X498354Y510202D01*
X500380Y509659D01*
Y516890D01*
D02*
G37*
G36*
X1080770Y489831D02*
X1078744Y489288D01*
X1076796Y488164D01*
X1075206Y486574D01*
X1075169Y486510D01*
X947940D01*
X947940Y486510D01*
X945958Y486115D01*
X944278Y484992D01*
X913155Y453870D01*
X912380Y454078D01*
Y445770D01*
X920688D01*
X920480Y446545D01*
X950086Y476151D01*
X1075169D01*
X1075206Y476086D01*
X1076796Y474496D01*
X1078744Y473372D01*
X1080770Y472829D01*
Y481330D01*
Y489831D01*
D02*
G37*
G36*
X1083310D02*
Y482600D01*
X1090541D01*
X1089998Y484626D01*
X1088874Y486574D01*
X1087284Y488164D01*
X1085336Y489288D01*
X1083310Y489831D01*
D02*
G37*
G36*
X1090541Y480060D02*
X1083310D01*
Y472829D01*
X1085336Y473372D01*
X1087284Y474496D01*
X1088874Y476086D01*
X1089998Y478034D01*
X1090541Y480060D01*
D02*
G37*
G36*
X1159364Y489870D02*
X1157116D01*
X1154944Y489288D01*
X1152996Y488164D01*
X1151406Y486574D01*
X1150282Y484626D01*
X1149700Y482454D01*
Y480206D01*
X1150282Y478034D01*
X1151406Y476086D01*
X1152996Y474496D01*
X1154944Y473372D01*
X1157116Y472790D01*
X1159364D01*
X1161536Y473372D01*
X1163484Y474496D01*
X1165074Y476086D01*
X1166198Y478034D01*
X1166780Y480206D01*
Y482454D01*
X1166198Y484626D01*
X1165074Y486574D01*
X1163484Y488164D01*
X1161536Y489288D01*
X1159364Y489870D01*
D02*
G37*
G36*
X909840Y454078D02*
X907412Y453427D01*
X905228Y452166D01*
X903444Y450382D01*
X902183Y448198D01*
X901533Y445770D01*
X909840D01*
Y454078D01*
D02*
G37*
G36*
X920688Y443230D02*
X912380D01*
Y434922D01*
X914808Y435573D01*
X916992Y436834D01*
X918776Y438618D01*
X920037Y440802D01*
X920688Y443230D01*
D02*
G37*
G36*
X909840D02*
X901533D01*
X902183Y440802D01*
X903444Y438618D01*
X905228Y436834D01*
X907412Y435573D01*
X909840Y434922D01*
Y443230D01*
D02*
G37*
G36*
X977371Y454080D02*
X974849D01*
X972412Y453427D01*
X970228Y452166D01*
X968444Y450382D01*
X967183Y448198D01*
X966530Y445761D01*
Y443239D01*
X967183Y440802D01*
X968444Y438618D01*
X970228Y436834D01*
X972412Y435573D01*
X974849Y434920D01*
X977371D01*
X979808Y435573D01*
X981992Y436834D01*
X983776Y438618D01*
X985037Y440802D01*
X985690Y443239D01*
Y445761D01*
X985037Y448198D01*
X983776Y450382D01*
X981992Y452166D01*
X979808Y453427D01*
X977371Y454080D01*
D02*
G37*
G36*
X709930Y440301D02*
Y433070D01*
X717161D01*
X716618Y435096D01*
X715494Y437044D01*
X713904Y438634D01*
X711956Y439758D01*
X709930Y440301D01*
D02*
G37*
G36*
X505460D02*
Y433070D01*
X512691D01*
X512148Y435096D01*
X511024Y437044D01*
X509434Y438634D01*
X507486Y439758D01*
X505460Y440301D01*
D02*
G37*
G36*
X502920D02*
X500894Y439758D01*
X498946Y438634D01*
X497356Y437044D01*
X496232Y435096D01*
X495689Y433070D01*
X502920D01*
Y440301D01*
D02*
G37*
G36*
X707390D02*
X705364Y439758D01*
X703416Y438634D01*
X701826Y437044D01*
X700702Y435096D01*
X700159Y433070D01*
X707390D01*
Y440301D01*
D02*
G37*
G36*
X512691Y430530D02*
X505460D01*
Y423299D01*
X507486Y423842D01*
X509434Y424966D01*
X511024Y426556D01*
X512148Y428504D01*
X512691Y430530D01*
D02*
G37*
G36*
X502920D02*
X495689D01*
X496232Y428504D01*
X497356Y426556D01*
X498946Y424966D01*
X500894Y423842D01*
X502920Y423299D01*
Y430530D01*
D02*
G37*
G36*
X1098967Y418500D02*
X1098910D01*
Y409690D01*
X1107720D01*
Y409747D01*
X1107033Y412310D01*
X1105706Y414609D01*
X1103829Y416486D01*
X1101531Y417813D01*
X1098967Y418500D01*
D02*
G37*
G36*
X1096370D02*
X1096313D01*
X1093749Y417813D01*
X1091451Y416486D01*
X1089574Y414609D01*
X1088247Y412310D01*
X1087560Y409747D01*
Y409690D01*
X1096370D01*
Y418500D01*
D02*
G37*
G36*
X824489Y431985D02*
X821431D01*
X818477Y431193D01*
X815828Y429664D01*
X813666Y427502D01*
X812137Y424853D01*
X811345Y421899D01*
Y418841D01*
X812137Y415887D01*
X813666Y413238D01*
X815828Y411076D01*
X818477Y409547D01*
X821431Y408755D01*
X824489D01*
X827443Y409547D01*
X830092Y411076D01*
X832254Y413238D01*
X833783Y415887D01*
X834575Y418841D01*
Y421899D01*
X833783Y424853D01*
X832254Y427502D01*
X830092Y429664D01*
X827443Y431193D01*
X824489Y431985D01*
D02*
G37*
G36*
X1152720Y418500D02*
X1132560D01*
Y398340D01*
X1152720D01*
Y418500D01*
D02*
G37*
G36*
X1107720Y407150D02*
X1098910D01*
Y398340D01*
X1098967D01*
X1101531Y399027D01*
X1103829Y400354D01*
X1105706Y402231D01*
X1107033Y404529D01*
X1107720Y407093D01*
Y407150D01*
D02*
G37*
G36*
X1096370D02*
X1087560D01*
Y407093D01*
X1088247Y404529D01*
X1089574Y402231D01*
X1091451Y400354D01*
X1093749Y399027D01*
X1096313Y398340D01*
X1096370D01*
Y407150D01*
D02*
G37*
G36*
X504190Y365371D02*
X502164Y364828D01*
X500216Y363704D01*
X498626Y362114D01*
X497502Y360166D01*
X496959Y358140D01*
X504190D01*
Y365371D01*
D02*
G37*
G36*
X704850Y364101D02*
Y356870D01*
X712081D01*
X711538Y358896D01*
X710414Y360844D01*
X708824Y362434D01*
X706876Y363558D01*
X704850Y364101D01*
D02*
G37*
G36*
X674370Y388695D02*
X533400D01*
X531913Y388399D01*
X530653Y387557D01*
X508100Y365004D01*
X506730Y365371D01*
Y358140D01*
X513961D01*
X513594Y359510D01*
X535009Y380925D01*
X672761D01*
X695446Y358240D01*
X695079Y356870D01*
X702310D01*
Y364101D01*
X700940Y363734D01*
X677117Y387557D01*
X675857Y388399D01*
X674370Y388695D01*
D02*
G37*
G36*
X513961Y355600D02*
X506730D01*
Y348369D01*
X508756Y348912D01*
X510704Y350036D01*
X512294Y351626D01*
X513418Y353574D01*
X513961Y355600D01*
D02*
G37*
G36*
X504190D02*
X496959D01*
X497502Y353574D01*
X498626Y351626D01*
X500216Y350036D01*
X502164Y348912D01*
X504190Y348369D01*
Y355600D01*
D02*
G37*
G36*
X582784Y365410D02*
X580536D01*
X578364Y364828D01*
X576416Y363704D01*
X574826Y362114D01*
X573702Y360166D01*
X573120Y357994D01*
Y355746D01*
X573702Y353574D01*
X574826Y351626D01*
X576416Y350036D01*
X578364Y348912D01*
X580536Y348330D01*
X582784D01*
X584956Y348912D01*
X586904Y350036D01*
X588494Y351626D01*
X589618Y353574D01*
X590200Y355746D01*
Y357994D01*
X589618Y360166D01*
X588494Y362114D01*
X586904Y363704D01*
X584956Y364828D01*
X582784Y365410D01*
D02*
G37*
G36*
X712081Y354330D02*
X704850D01*
Y347099D01*
X706876Y347642D01*
X708824Y348766D01*
X710414Y350356D01*
X711538Y352304D01*
X712081Y354330D01*
D02*
G37*
G36*
X702310D02*
X695079D01*
X695622Y352304D01*
X696746Y350356D01*
X698336Y348766D01*
X700284Y347642D01*
X702310Y347099D01*
Y354330D01*
D02*
G37*
G36*
X1098967Y353500D02*
X1098910D01*
Y344690D01*
X1107720D01*
Y344747D01*
X1107033Y347311D01*
X1105706Y349609D01*
X1103829Y351486D01*
X1101531Y352813D01*
X1098967Y353500D01*
D02*
G37*
G36*
X1096370D02*
X1096313D01*
X1093749Y352813D01*
X1091451Y351486D01*
X1089574Y349609D01*
X1088247Y347311D01*
X1087560Y344747D01*
Y344690D01*
X1096370D01*
Y353500D01*
D02*
G37*
G36*
X1000746Y352440D02*
X998234D01*
X995808Y351790D01*
X993632Y350534D01*
X991856Y348758D01*
X990600Y346582D01*
X989950Y344156D01*
Y341644D01*
X990600Y339218D01*
X991856Y337042D01*
X993632Y335266D01*
X995808Y334010D01*
X998234Y333360D01*
X1000746D01*
X1003172Y334010D01*
X1005348Y335266D01*
X1007124Y337042D01*
X1008380Y339218D01*
X1009030Y341644D01*
Y344156D01*
X1008380Y346582D01*
X1007124Y348758D01*
X1005348Y350534D01*
X1003172Y351790D01*
X1000746Y352440D01*
D02*
G37*
G36*
X899146D02*
X896634D01*
X894208Y351790D01*
X892032Y350534D01*
X890256Y348758D01*
X889000Y346582D01*
X888350Y344156D01*
Y341644D01*
X889000Y339218D01*
X890256Y337042D01*
X892032Y335266D01*
X894208Y334010D01*
X896634Y333360D01*
X899146D01*
X901572Y334010D01*
X903748Y335266D01*
X905524Y337042D01*
X906780Y339218D01*
X907430Y341644D01*
Y344156D01*
X906780Y346582D01*
X905524Y348758D01*
X903748Y350534D01*
X901572Y351790D01*
X899146Y352440D01*
D02*
G37*
G36*
X1143967Y353500D02*
X1141313D01*
X1138749Y352813D01*
X1136451Y351486D01*
X1134574Y349609D01*
X1133247Y347311D01*
X1132560Y344747D01*
Y342093D01*
X1133247Y339529D01*
X1134574Y337231D01*
X1136451Y335354D01*
X1138749Y334027D01*
X1141313Y333340D01*
X1143967D01*
X1146531Y334027D01*
X1148829Y335354D01*
X1150706Y337231D01*
X1152033Y339529D01*
X1152720Y342093D01*
Y344747D01*
X1152033Y347311D01*
X1150706Y349609D01*
X1148829Y351486D01*
X1146531Y352813D01*
X1143967Y353500D01*
D02*
G37*
G36*
X1107720Y342150D02*
X1098910D01*
Y333340D01*
X1098967D01*
X1101531Y334027D01*
X1103829Y335354D01*
X1105706Y337231D01*
X1107033Y339529D01*
X1107720Y342093D01*
Y342150D01*
D02*
G37*
G36*
X1096370D02*
X1087560D01*
Y342093D01*
X1088247Y339529D01*
X1089574Y337231D01*
X1091451Y335354D01*
X1093749Y334027D01*
X1096313Y333340D01*
X1096370D01*
Y342150D01*
D02*
G37*
G36*
X869936Y351170D02*
X867424D01*
X864998Y350520D01*
X862822Y349264D01*
X861046Y347488D01*
X859790Y345312D01*
X859140Y342886D01*
Y340374D01*
X859790Y337948D01*
X861046Y335772D01*
X862822Y333996D01*
X864998Y332740D01*
X867424Y332090D01*
X869936D01*
X872362Y332740D01*
X874538Y333996D01*
X876314Y335772D01*
X877570Y337948D01*
X878220Y340374D01*
Y342886D01*
X877570Y345312D01*
X876314Y347488D01*
X874538Y349264D01*
X872362Y350520D01*
X869936Y351170D01*
D02*
G37*
G36*
X628504Y364140D02*
X626256D01*
X624084Y363558D01*
X622136Y362434D01*
X620546Y360844D01*
X619422Y358896D01*
X618840Y356724D01*
Y354476D01*
X619422Y352304D01*
X620546Y350356D01*
X622136Y348766D01*
X624084Y347642D01*
X626256Y347060D01*
X628504D01*
X630020Y347466D01*
X638603Y338883D01*
X639863Y338041D01*
X641350Y337745D01*
X758307D01*
X759446Y335772D01*
X761222Y333996D01*
X763398Y332740D01*
X765824Y332090D01*
X768336D01*
X770762Y332740D01*
X772938Y333996D01*
X774714Y335772D01*
X775970Y337948D01*
X776620Y340374D01*
Y342886D01*
X775970Y345312D01*
X774714Y347488D01*
X772938Y349264D01*
X770762Y350520D01*
X768336Y351170D01*
X765824D01*
X763398Y350520D01*
X761222Y349264D01*
X759446Y347488D01*
X758307Y345515D01*
X642959D01*
X635514Y352960D01*
X635920Y354476D01*
Y356724D01*
X635338Y358896D01*
X634214Y360844D01*
X632624Y362434D01*
X630676Y363558D01*
X628504Y364140D01*
D02*
G37*
%LPD*%
G36*
X958790Y776887D02*
X958200Y774686D01*
Y772174D01*
X958850Y769748D01*
X960106Y767572D01*
X961882Y765796D01*
X962900Y765209D01*
X963308Y763513D01*
X963199Y763345D01*
X917279D01*
X909789Y770835D01*
X910470Y773378D01*
Y776022D01*
X909786Y778575D01*
X908464Y780865D01*
X908257Y781072D01*
X908743Y782245D01*
X953431D01*
X958790Y776887D01*
D02*
G37*
G36*
X892603Y781072D02*
X892396Y780865D01*
X891074Y778575D01*
X890390Y776022D01*
Y773378D01*
X891074Y770825D01*
X892396Y768535D01*
X894265Y766666D01*
X896555Y765344D01*
X899108Y764660D01*
X901752D01*
X904295Y765341D01*
X910452Y759184D01*
X909966Y758011D01*
X897213D01*
X884389Y770835D01*
X885070Y773378D01*
Y776022D01*
X884386Y778575D01*
X883064Y780865D01*
X882857Y781072D01*
X883343Y782245D01*
X892117D01*
X892603Y781072D01*
D02*
G37*
G36*
X886460Y703970D02*
X886841D01*
X890030Y704825D01*
X892890Y706476D01*
X895225Y708810D01*
X896875Y711670D01*
X897233Y713003D01*
X898547D01*
X898905Y711670D01*
X900555Y708810D01*
X902890Y706476D01*
X905750Y704825D01*
X908939Y703970D01*
X912241D01*
X915430Y704825D01*
X918290Y706476D01*
X920624Y708810D01*
X922275Y711670D01*
X922633Y713003D01*
X923947D01*
X924305Y711670D01*
X924799Y710813D01*
X904687Y690701D01*
X718820D01*
X718501Y690637D01*
X717875Y691808D01*
X721567Y695499D01*
X721807Y695859D01*
X722585Y696673D01*
X723472Y696238D01*
X723937Y695927D01*
X725424Y695631D01*
X842796D01*
X844283Y695927D01*
X845543Y696769D01*
X854093Y705319D01*
X854950Y704825D01*
X858139Y703970D01*
X861441D01*
X864630Y704825D01*
X867490Y706476D01*
X869825Y708810D01*
X871475Y711670D01*
X871833Y713003D01*
X873147D01*
X873505Y711670D01*
X875155Y708810D01*
X877490Y706476D01*
X880350Y704825D01*
X883539Y703970D01*
X883920D01*
Y716510D01*
X886460D01*
Y703970D01*
D02*
G37*
G36*
X720250Y624770D02*
X745330D01*
Y631428D01*
X745546Y631591D01*
X747207Y631253D01*
X748156Y629610D01*
X750490Y627275D01*
X753350Y625625D01*
X756539Y624770D01*
X759841D01*
X763030Y625625D01*
X765890Y627275D01*
X768224Y629610D01*
X769875Y632470D01*
X770233Y633803D01*
X771547D01*
X771905Y632470D01*
X772399Y631613D01*
X682135Y541349D01*
X624989D01*
X624080Y542923D01*
X622425Y544578D01*
X620397Y545748D01*
X618136Y546354D01*
X615796D01*
X613535Y545748D01*
X611507Y544578D01*
X610695Y545511D01*
X713571Y648387D01*
X720250D01*
Y624770D01*
D02*
G37*
G36*
X624326Y434440D02*
X623920Y432924D01*
Y430676D01*
X624502Y428504D01*
X625342Y427049D01*
X624712Y425779D01*
X588138D01*
X587508Y427049D01*
X588348Y428504D01*
X588930Y430676D01*
Y432924D01*
X588348Y435096D01*
X587224Y437044D01*
X585634Y438634D01*
X583686Y439758D01*
X581514Y440340D01*
X579266D01*
X577094Y439758D01*
X575146Y438634D01*
X573556Y437044D01*
X572432Y435096D01*
X571850Y432924D01*
Y430676D01*
X572432Y428504D01*
X573272Y427049D01*
X572642Y425779D01*
X570569D01*
X566749Y429599D01*
Y490358D01*
X567922Y490844D01*
X624326Y434440D01*
D02*
G37*
D14*
X718820Y698246D02*
Y706120D01*
X501650Y518160D02*
Y659260D01*
X875030Y774700D02*
X895604Y754126D01*
X997966D01*
X1012190Y768350D01*
X567944Y496316D02*
X632460Y431800D01*
X567944Y496316D02*
Y535940D01*
X718820Y686816D01*
X906296D01*
X935990Y716510D01*
X808990D02*
X839494Y747014D01*
X1156344D01*
X1171850Y762520D01*
X1170940Y552450D02*
Y677926D01*
X1117092Y731774D02*
X1170940Y677926D01*
X849654Y731774D02*
X1117092D01*
X834390Y716510D02*
X849654Y731774D01*
X734314Y421894D02*
X755650Y443230D01*
X568960Y421894D02*
X734314D01*
X562864Y427990D02*
X568960Y421894D01*
X562864Y427990D02*
Y542290D01*
X718820Y698246D01*
Y776986D02*
X719582Y874776D01*
X695198Y899160D02*
X719582Y874776D01*
X695198Y899160D02*
Y914400D01*
X708406Y927608D01*
X968248D01*
X1032510Y991870D01*
Y1002030D01*
X842796Y699516D02*
X859790Y716510D01*
X725424Y699516D02*
X842796D01*
X718820Y706120D02*
X725424Y699516D01*
X718820Y706120D02*
Y776986D01*
X822960Y445770D02*
X986790Y609600D01*
Y637310D01*
X610870Y734060D02*
X707390Y830580D01*
X616966Y537464D02*
X683744D01*
X783590Y637310D01*
X849630Y800100D02*
X863600Y786130D01*
X955040D01*
X967740Y773430D01*
X875030Y800100D02*
X887222Y812292D01*
X971296D01*
X635000Y965200D02*
X661670Y938530D01*
X708660D01*
X505460Y356870D02*
X533400Y384810D01*
X674370D01*
X703580Y355600D01*
X706120Y904240D02*
X773430D01*
X810260Y867410D01*
X925440D01*
X947780Y845070D01*
Y910070D02*
X960214Y897636D01*
X1089796D01*
X1097280Y905120D01*
X913130Y978460D02*
X924000Y989330D01*
X1007110D01*
X1126850Y762520D02*
X1138268Y773938D01*
X1178560D01*
X1193800Y758698D01*
Y701040D02*
Y758698D01*
X532130Y1000760D02*
X545846Y987044D01*
X773684D01*
X795020Y1008380D01*
X627380Y355600D02*
X641350Y341630D01*
X767080D01*
X577850Y518160D02*
X711962Y652272D01*
X870228D01*
X885190Y637310D01*
X907264Y659384D01*
X1075944D01*
X1117600Y701040D01*
X1069340Y773430D02*
Y833120D01*
X1057390Y845070D02*
X1069340Y833120D01*
X992780Y845070D02*
X1057390D01*
X992780Y772160D02*
Y845070D01*
X980080Y759460D02*
X992780Y772160D01*
X915670Y759460D02*
X980080D01*
X900430Y774700D02*
X915670Y759460D01*
X980322Y922528D02*
X992780Y910070D01*
X826008Y922528D02*
X980322D01*
X807720Y904240D02*
X826008Y922528D01*
X961390Y1014730D02*
X1007110D01*
X913130Y1013460D02*
X961390Y1014730D01*
X1007110D02*
X1061330D01*
X1097280Y978780D01*
D44*
X911110Y444500D02*
X947940Y481330D01*
X1082040D01*
D45*
X1097640Y343420D02*
D03*
Y408420D02*
D03*
X1142640Y343420D02*
D03*
X1126850Y762520D02*
D03*
Y827520D02*
D03*
X1171850Y762520D02*
D03*
X947780Y845070D02*
D03*
Y910070D02*
D03*
X992780Y845070D02*
D03*
D46*
X1142640Y408420D02*
D03*
X1171850Y827520D02*
D03*
X992780Y910070D02*
D03*
D47*
X1082040Y481330D02*
D03*
X1158240D02*
D03*
X1097280Y905120D02*
D03*
X1173480D02*
D03*
X1193800Y701040D02*
D03*
X1117600D02*
D03*
X718820Y1008380D02*
D03*
X795020D02*
D03*
X581660Y356870D02*
D03*
X505460D02*
D03*
X703580Y355600D02*
D03*
X627380D02*
D03*
X577850Y518160D02*
D03*
X501650D02*
D03*
X706120Y521970D02*
D03*
X629920D02*
D03*
X632460Y431800D02*
D03*
X708660D02*
D03*
X755650Y519430D02*
D03*
Y443230D02*
D03*
X913130Y978460D02*
D03*
X580390Y431800D02*
D03*
X504190D02*
D03*
D48*
X1069340Y552450D02*
D03*
X1170940D02*
D03*
X1097280Y978780D02*
D03*
X1198880D02*
D03*
X967740Y773430D02*
D03*
X1069340D02*
D03*
X999490Y342900D02*
D03*
X897890D02*
D03*
X810260Y867410D02*
D03*
X708660D02*
D03*
X868680Y341630D02*
D03*
X767080D02*
D03*
X707390Y830580D02*
D03*
X808990D02*
D03*
X532130Y825500D02*
D03*
X633730D02*
D03*
X533400Y862330D02*
D03*
X635000D02*
D03*
X533400Y929640D02*
D03*
X635000D02*
D03*
X533400Y965200D02*
D03*
X635000D02*
D03*
X532130Y1000760D02*
D03*
X633730D02*
D03*
X807720Y904240D02*
D03*
X706120D02*
D03*
X708660Y938530D02*
D03*
X810260D02*
D03*
X635000Y897890D02*
D03*
X533400D02*
D03*
D49*
X849630Y774700D02*
D03*
Y800100D02*
D03*
X875030Y774700D02*
D03*
Y800100D02*
D03*
X900430Y774700D02*
D03*
D50*
Y800100D02*
D03*
D51*
X913130Y1013460D02*
D03*
D52*
X822960Y420370D02*
D03*
D53*
Y445770D02*
D03*
D54*
X976110Y444500D02*
D03*
X911110D02*
D03*
D55*
X1007110Y1014730D02*
D03*
D56*
X1032510Y1002030D02*
D03*
X1007110Y989330D02*
D03*
D57*
X732790Y637310D02*
D03*
D58*
X758190D02*
D03*
X885190D02*
D03*
X910590D02*
D03*
X783590D02*
D03*
X808990D02*
D03*
X859790D02*
D03*
X834390D02*
D03*
X935990D02*
D03*
X961390D02*
D03*
X986790D02*
D03*
X1012190D02*
D03*
X1037590D02*
D03*
X1062990D02*
D03*
Y716510D02*
D03*
X1037590D02*
D03*
X1012190D02*
D03*
X986790D02*
D03*
X961390D02*
D03*
X935990D02*
D03*
X910590D02*
D03*
X885190D02*
D03*
X859790D02*
D03*
X834390D02*
D03*
X808990D02*
D03*
X783590D02*
D03*
X758190D02*
D03*
X732790D02*
D03*
D59*
X501650Y659260D02*
D03*
X1012190Y768350D02*
D03*
X610870Y734060D02*
D03*
X616966Y537464D02*
D03*
X971296Y812292D02*
D03*
M02*
