M48
;Layer_Color=9474304
;FILE_FORMAT=4:4
METRIC,LZ
;TYPE=PLATED
T01F00S00C0.7000
T02F00S00C0.7112
T03F00S00C0.8500
T04F00S00C0.9000
T05F00S00C0.9906
T06F00S00C1.0000
T07F00S00C1.2100
%
T01
X0050546Y0035687
X0058166
X0062738Y003556
X0070358
X011938Y0070104
X011176
X0108204Y0048133
X0115824
X0075565Y0051943
X0070612Y0052197
X0062992
X0057785Y0051816
X0050165
X0050419Y004318
X0058039
X0063246
X0070866
X0075565Y0044323
X0071882Y0100838
X0079502
X0109728Y0090512
X0117348
T02
X0101219Y0076835
X0061087Y0073406
X0050165Y0065926
X00616966Y00537464
X00971296Y00812292
T03
X0076708Y0034163
X0086868
X0089789Y003429
X0099949
X0106934Y0055245
X0117094
X0106934Y0077343
X0096774
X0070739Y0083058
X0070866Y0086741
X0070612Y0090424
X0070866Y0093853
X00635Y0092964
Y0089789
Y0086233
X0063373Y008255
X0053213
X005334Y0086233
Y0089789
Y0092964
Y009652
X0053213Y0100076
X0063373
X00635Y009652
X0081026Y0093853
X0080772Y0090424
X0081026Y0086741
X0080899Y0083058
X0091313Y0097846
Y0101346
X0109728Y0097878
X0119888
T04
X0091111Y004445
X0097611
X0098679Y0063731
X0096139
X0093599
X0091059
X0088519
X0085979
X0083439
X0080899
Y0071651
X0083439
X0085979
X0088519
X0091059
X0093599
X0096139
X0098679
X0101219
X0103759
X0106299
Y0063731
X0103759
X0101219
X0090043Y007747
X0087503
X0084963
X0078359Y0071651
X0075819
X0073279
Y0063731
X0075819
X0078359
X0084963Y008001
X0087503
X0090043
T05
X0100711Y0098933
Y0101473
X0103251Y0100203
T06
X0109764Y0034342
X0114264
Y0040842
X0109764
X0112685Y0076252
X0117185
Y0082752
X0112685
X0099278Y0084507
X0094778
Y0091007
X0099278
T07
X0082296Y0042037
Y0044577
M30
