G04*
G04 #@! TF.GenerationSoftware,Altium Limited,Altium Designer,24.10.1 (45)*
G04*
G04 Layer_Color=32768*
%FSLAX44Y44*%
%MOMM*%
G71*
G04*
G04 #@! TF.SameCoordinates,03EB8B32-1028-4CD5-B254-22B402A092A0*
G04*
G04*
G04 #@! TF.FilePolarity,Positive*
G04*
G01*
G75*
%ADD60C,0.0500*%
D60*
X955630Y995960D02*
G03*
X955630Y995960I-42500J0D01*
G01*
X806440Y460498D02*
G03*
X839480Y460498I16520J-27494D01*
G01*
X1006110Y444500D02*
G03*
X1006110Y444500I-62500J0D01*
G01*
X511420Y708880D02*
Y723680D01*
X481720Y708880D02*
Y723680D01*
X511420D01*
X481720Y708880D02*
X511420D01*
X1152680Y333380D02*
Y418460D01*
X1087600Y333380D02*
X1152680D01*
X1087600D02*
Y418460D01*
X1152680D01*
X1181890Y752480D02*
Y837560D01*
X1116810Y752480D02*
X1181890D01*
X1116810D02*
Y837560D01*
X1181890D01*
X1002820Y835030D02*
Y920110D01*
X937740Y835030D02*
X1002820D01*
X937740D02*
Y920110D01*
X1002820D01*
X583320Y1017490D02*
X613020D01*
X583320Y1032290D02*
X613020D01*
X583320Y1017490D02*
Y1032290D01*
X613020Y1017490D02*
Y1032290D01*
X479010Y636660D02*
Y666360D01*
X493810Y636660D02*
Y666360D01*
X479010D02*
X493810D01*
X479010Y636660D02*
X493810D01*
X469680Y653040D02*
Y682740D01*
X454880Y653040D02*
Y682740D01*
Y653040D02*
X469680D01*
X454880Y682740D02*
X469680D01*
X619500Y746980D02*
Y761780D01*
X589800Y746980D02*
Y761780D01*
X619500D01*
X589800Y746980D02*
X619500D01*
X684790Y755870D02*
Y770670D01*
X714490Y755870D02*
Y770670D01*
X684790Y755870D02*
X714490D01*
X684790Y770670D02*
X714490D01*
X589670Y776190D02*
X619370D01*
X589670Y790990D02*
X619370D01*
X589670Y776190D02*
Y790990D01*
X619370Y776190D02*
Y790990D01*
X685050Y798610D02*
X714750D01*
X685050Y783810D02*
X714750D01*
Y798610D01*
X685050Y783810D02*
Y798610D01*
X806560Y460570D02*
X839360D01*
X532720Y704380D02*
X562020D01*
X532720Y690080D02*
X562020D01*
Y704380D01*
X532720Y690080D02*
Y704380D01*
X592390Y646950D02*
X695390D01*
X592390Y724650D02*
X695390D01*
X592390Y646950D02*
Y724650D01*
X695390Y646950D02*
Y724650D01*
X720390Y626910D02*
Y726910D01*
X1075390D01*
Y626910D02*
Y726910D01*
X720390Y626910D02*
X1075390D01*
X531630Y684060D02*
X560930D01*
X531630Y669760D02*
X560930D01*
Y684060D01*
X531630Y669760D02*
Y684060D01*
M02*
