G04*
G04 #@! TF.GenerationSoftware,Altium Limited,Altium Designer,24.10.1 (45)*
G04*
G04 Layer_Color=8421504*
%FSLAX44Y44*%
%MOMM*%
G71*
G04*
G04 #@! TF.SameCoordinates,03EB8B32-1028-4CD5-B254-22B402A092A0*
G04*
G04*
G04 #@! TF.FilePolarity,Positive*
G04*
G01*
G75*
%ADD16R,0.9200X0.9800*%
%ADD17R,0.9800X0.9200*%
%ADD18R,0.8700X0.9300*%
G04:AMPARAMS|DCode=19|XSize=1.5mm|YSize=0.41mm|CornerRadius=0.0513mm|HoleSize=0mm|Usage=FLASHONLY|Rotation=270.000|XOffset=0mm|YOffset=0mm|HoleType=Round|Shape=RoundedRectangle|*
%AMROUNDEDRECTD19*
21,1,1.5000,0.3075,0,0,270.0*
21,1,1.3975,0.4100,0,0,270.0*
1,1,0.1025,-0.1538,-0.6988*
1,1,0.1025,-0.1538,0.6988*
1,1,0.1025,0.1538,0.6988*
1,1,0.1025,0.1538,-0.6988*
%
%ADD19ROUNDEDRECTD19*%
%ADD20R,12.0650X1.2700*%
%ADD21R,12.7000X1.2700*%
D16*
X504320Y716280D02*
D03*
X488820D02*
D03*
X590420Y1024890D02*
D03*
X605920D02*
D03*
X612400Y754380D02*
D03*
X596900D02*
D03*
X691890Y763270D02*
D03*
X707390D02*
D03*
X596770Y783590D02*
D03*
X612270D02*
D03*
X707650Y791210D02*
D03*
X692150D02*
D03*
D17*
X486410Y659260D02*
D03*
Y643760D02*
D03*
X462280Y660140D02*
D03*
Y675640D02*
D03*
D18*
X555170Y697230D02*
D03*
X539570D02*
D03*
X554080Y676910D02*
D03*
X538480D02*
D03*
D19*
X686140Y656950D02*
D03*
X679640D02*
D03*
X673140D02*
D03*
X666640D02*
D03*
X660140D02*
D03*
X653640D02*
D03*
X647140D02*
D03*
X640640D02*
D03*
X634140D02*
D03*
X627640D02*
D03*
X621140D02*
D03*
X614640D02*
D03*
X608140D02*
D03*
X601640D02*
D03*
Y714650D02*
D03*
X608140D02*
D03*
X614640D02*
D03*
X621140D02*
D03*
X627640D02*
D03*
X634140D02*
D03*
X640640D02*
D03*
X647140D02*
D03*
X653640D02*
D03*
X660140D02*
D03*
X666640D02*
D03*
X673140D02*
D03*
X679640D02*
D03*
X686140D02*
D03*
D20*
X367665Y668655D02*
D03*
Y690245D02*
D03*
D21*
X364490Y717550D02*
D03*
Y641350D02*
D03*
M02*
