G04*
G04 #@! TF.GenerationSoftware,Altium Limited,Altium Designer,24.10.1 (45)*
G04*
G04 Layer_Color=128*
%FSLAX44Y44*%
%MOMM*%
G71*
G04*
G04 #@! TF.SameCoordinates,03EB8B32-1028-4CD5-B254-22B402A092A0*
G04*
G04*
G04 #@! TF.FilePolarity,Positive*
G04*
G01*
G75*
%ADD11C,0.1270*%
D11*
X1092640Y343420D02*
X1102640D01*
X1097640Y338420D02*
Y348420D01*
X1092640Y408420D02*
X1102640D01*
X1097640Y403420D02*
Y413420D01*
X1137640Y343420D02*
X1147640D01*
X1142640Y338420D02*
Y348420D01*
X1137640Y408420D02*
X1147640D01*
X1142640Y403420D02*
Y413420D01*
X1121850Y762520D02*
X1131850D01*
X1126850Y757520D02*
Y767520D01*
X1121850Y827520D02*
X1131850D01*
X1126850Y822520D02*
Y832520D01*
X1166850Y762520D02*
X1176850D01*
X1171850Y757520D02*
Y767520D01*
X1166850Y827520D02*
X1176850D01*
X1171850Y822520D02*
Y832520D01*
X942780Y845070D02*
X952780D01*
X947780Y840070D02*
Y850070D01*
X942780Y910070D02*
X952780D01*
X947780Y905070D02*
Y915070D01*
X987780Y845070D02*
X997780D01*
X992780Y840070D02*
Y850070D01*
X987780Y910070D02*
X997780D01*
X992780Y905070D02*
Y915070D01*
X1078540Y481330D02*
X1085540D01*
X1082040Y477830D02*
Y484830D01*
X1154740Y481330D02*
X1161740D01*
X1158240Y477830D02*
Y484830D01*
X1093780Y905120D02*
X1100780D01*
X1097280Y901620D02*
Y908620D01*
X1169980Y905120D02*
X1176980D01*
X1173480Y901620D02*
Y908620D01*
X1190300Y701040D02*
X1197300D01*
X1193800Y697540D02*
Y704540D01*
X1114100Y701040D02*
X1121100D01*
X1117600Y697540D02*
Y704540D01*
X1065090Y552450D02*
X1073590D01*
X1069340Y548200D02*
Y556700D01*
X1166690Y552450D02*
X1175190D01*
X1170940Y548200D02*
Y556700D01*
X1093030Y978780D02*
X1101530D01*
X1097280Y974530D02*
Y983030D01*
X1194630Y978780D02*
X1203130D01*
X1198880Y974530D02*
Y983030D01*
X963490Y773430D02*
X971990D01*
X967740Y769180D02*
Y777680D01*
X1065090Y773430D02*
X1073590D01*
X1069340Y769180D02*
Y777680D01*
X845130Y774700D02*
X854130D01*
X849630Y770200D02*
Y779200D01*
X845130Y800100D02*
X854130D01*
X849630Y795600D02*
Y804600D01*
X870530Y774700D02*
X879530D01*
X875030Y770200D02*
Y779200D01*
X870530Y800100D02*
X879530D01*
X875030Y795600D02*
Y804600D01*
X895930Y774700D02*
X904930D01*
X900430Y770200D02*
Y779200D01*
X895930Y800100D02*
X904930D01*
X900430Y795600D02*
Y804600D01*
X715320Y1008380D02*
X722320D01*
X718820Y1004880D02*
Y1011880D01*
X791520Y1008380D02*
X798520D01*
X795020Y1004880D02*
Y1011880D01*
X578160Y356870D02*
X585160D01*
X581660Y353370D02*
Y360370D01*
X501960Y356870D02*
X508960D01*
X505460Y353370D02*
Y360370D01*
X700080Y355600D02*
X707080D01*
X703580Y352100D02*
Y359100D01*
X623880Y355600D02*
X630880D01*
X627380Y352100D02*
Y359100D01*
X574350Y518160D02*
X581350D01*
X577850Y514660D02*
Y521660D01*
X498150Y518160D02*
X505150D01*
X501650Y514660D02*
Y521660D01*
X702620Y521970D02*
X709620D01*
X706120Y518470D02*
Y525470D01*
X626420Y521970D02*
X633420D01*
X629920Y518470D02*
Y525470D01*
X628960Y431800D02*
X635960D01*
X632460Y428300D02*
Y435300D01*
X705160Y431800D02*
X712160D01*
X708660Y428300D02*
Y435300D01*
X752150Y519430D02*
X759150D01*
X755650Y515930D02*
Y522930D01*
X752150Y443230D02*
X759150D01*
X755650Y439730D02*
Y446730D01*
X995240Y342900D02*
X1003740D01*
X999490Y338650D02*
Y347150D01*
X893640Y342900D02*
X902140D01*
X897890Y338650D02*
Y347150D01*
X806010Y867410D02*
X814510D01*
X810260Y863160D02*
Y871660D01*
X704410Y867410D02*
X712910D01*
X708660Y863160D02*
Y871660D01*
X908880Y1013460D02*
X917380D01*
X913130Y1009210D02*
Y1017710D01*
X908880Y978460D02*
X917380D01*
X913130Y974210D02*
Y982710D01*
X576890Y431800D02*
X583890D01*
X580390Y428300D02*
Y435300D01*
X500690Y431800D02*
X507690D01*
X504190Y428300D02*
Y435300D01*
X816910Y420370D02*
X829010D01*
X822960Y414320D02*
Y426420D01*
X816910Y445770D02*
X829010D01*
X822960Y439720D02*
Y451820D01*
X971610Y444500D02*
X980610D01*
X976110Y440000D02*
Y449000D01*
X906610Y444500D02*
X915610D01*
X911110Y440000D02*
Y449000D01*
X864430Y341630D02*
X872930D01*
X868680Y337380D02*
Y345880D01*
X762830Y341630D02*
X771330D01*
X767080Y337380D02*
Y345880D01*
X1002157Y1014730D02*
X1012063D01*
X1007110Y1009777D02*
Y1019683D01*
X1027557Y1002030D02*
X1037463D01*
X1032510Y997077D02*
Y1006983D01*
X1002157Y989330D02*
X1012063D01*
X1007110Y984377D02*
Y994283D01*
X703140Y830580D02*
X711640D01*
X707390Y826330D02*
Y834830D01*
X804740Y830580D02*
X813240D01*
X808990Y826330D02*
Y834830D01*
X527880Y825500D02*
X536380D01*
X532130Y821250D02*
Y829750D01*
X629480Y825500D02*
X637980D01*
X633730Y821250D02*
Y829750D01*
X529150Y862330D02*
X537650D01*
X533400Y858080D02*
Y866580D01*
X630750Y862330D02*
X639250D01*
X635000Y858080D02*
Y866580D01*
X529150Y929640D02*
X537650D01*
X533400Y925390D02*
Y933890D01*
X630750Y929640D02*
X639250D01*
X635000Y925390D02*
Y933890D01*
X529150Y965200D02*
X537650D01*
X533400Y960950D02*
Y969450D01*
X630750Y965200D02*
X639250D01*
X635000Y960950D02*
Y969450D01*
X527880Y1000760D02*
X536380D01*
X532130Y996510D02*
Y1005010D01*
X629480Y1000760D02*
X637980D01*
X633730Y996510D02*
Y1005010D01*
X803470Y904240D02*
X811970D01*
X807720Y899990D02*
Y908490D01*
X701870Y904240D02*
X710370D01*
X706120Y899990D02*
Y908490D01*
X728290Y637310D02*
X737290D01*
X732790Y632810D02*
Y641810D01*
X753690Y637310D02*
X762690D01*
X758190Y632810D02*
Y641810D01*
X880690Y637310D02*
X889690D01*
X885190Y632810D02*
Y641810D01*
X906090Y637310D02*
X915090D01*
X910590Y632810D02*
Y641810D01*
X779090Y637310D02*
X788090D01*
X783590Y632810D02*
Y641810D01*
X804490Y637310D02*
X813490D01*
X808990Y632810D02*
Y641810D01*
X855290Y637310D02*
X864290D01*
X859790Y632810D02*
Y641810D01*
X829890Y637310D02*
X838890D01*
X834390Y632810D02*
Y641810D01*
X931490Y637310D02*
X940490D01*
X935990Y632810D02*
Y641810D01*
X956890Y637310D02*
X965890D01*
X961390Y632810D02*
Y641810D01*
X982290Y637310D02*
X991290D01*
X986790Y632810D02*
Y641810D01*
X1007690Y637310D02*
X1016690D01*
X1012190Y632810D02*
Y641810D01*
X1033090Y637310D02*
X1042090D01*
X1037590Y632810D02*
Y641810D01*
X1058490Y637310D02*
X1067490D01*
X1062990Y632810D02*
Y641810D01*
X1058490Y716510D02*
X1067490D01*
X1062990Y712010D02*
Y721010D01*
X1033090Y716510D02*
X1042090D01*
X1037590Y712010D02*
Y721010D01*
X1007690Y716510D02*
X1016690D01*
X1012190Y712010D02*
Y721010D01*
X982290Y716510D02*
X991290D01*
X986790Y712010D02*
Y721010D01*
X956890Y716510D02*
X965890D01*
X961390Y712010D02*
Y721010D01*
X931490Y716510D02*
X940490D01*
X935990Y712010D02*
Y721010D01*
X906090Y716510D02*
X915090D01*
X910590Y712010D02*
Y721010D01*
X880690Y716510D02*
X889690D01*
X885190Y712010D02*
Y721010D01*
X855290Y716510D02*
X864290D01*
X859790Y712010D02*
Y721010D01*
X829890Y716510D02*
X838890D01*
X834390Y712010D02*
Y721010D01*
X804490Y716510D02*
X813490D01*
X808990Y712010D02*
Y721010D01*
X779090Y716510D02*
X788090D01*
X783590Y712010D02*
Y721010D01*
X753690Y716510D02*
X762690D01*
X758190Y712010D02*
Y721010D01*
X728290Y716510D02*
X737290D01*
X732790Y712010D02*
Y721010D01*
X704410Y938530D02*
X712910D01*
X708660Y934280D02*
Y942780D01*
X806010Y938530D02*
X814510D01*
X810260Y934280D02*
Y942780D01*
X630750Y897890D02*
X639250D01*
X635000Y893640D02*
Y902140D01*
X529150Y897890D02*
X537650D01*
X533400Y893640D02*
Y902140D01*
X498094Y659260D02*
X505206D01*
X501650Y655704D02*
Y662816D01*
X1008634Y768350D02*
X1015746D01*
X1012190Y764794D02*
Y771906D01*
X607314Y734060D02*
X614426D01*
X610870Y730504D02*
Y737616D01*
X613410Y537464D02*
X620522D01*
X616966Y533908D02*
Y541020D01*
X967740Y812292D02*
X974852D01*
X971296Y808736D02*
Y815848D01*
M02*
