G04*
G04 #@! TF.GenerationSoftware,Altium Limited,Altium Designer,24.10.1 (45)*
G04*
G04 Layer_Color=16711935*
%FSLAX44Y44*%
%MOMM*%
G71*
G04*
G04 #@! TF.SameCoordinates,03EB8B32-1028-4CD5-B254-22B402A092A0*
G04*
G04*
G04 #@! TF.FilePolarity,Positive*
G04*
G01*
G75*
%ADD10C,0.2000*%
%ADD11C,0.1270*%
%ADD12C,0.0000*%
%ADD13C,0.1524*%
D10*
X1161180Y408420D02*
G03*
X1161180Y408420I-1000J0D01*
G01*
X1190390Y827520D02*
G03*
X1190390Y827520I-1000J0D01*
G01*
X1011320Y910070D02*
G03*
X1011320Y910070I-1000J0D01*
G01*
X914130Y1043460D02*
G03*
X914130Y1043460I-1000J0D01*
G01*
X823960Y465070D02*
G03*
X823960Y465070I-1000J0D01*
G01*
X691240Y729650D02*
G03*
X691240Y729650I-1000J0D01*
G01*
D11*
X953130Y995960D02*
G03*
X953130Y995960I-40000J0D01*
G01*
X807300Y458070D02*
G03*
X838620Y458070I15660J-25061D01*
G01*
X1003610Y444500D02*
G03*
X1003610Y444500I-60000J0D01*
G01*
X487770Y711480D02*
Y721080D01*
X505370Y711480D02*
Y721080D01*
X487770D02*
X505370D01*
X487770Y711480D02*
X505370D01*
X1090140Y405920D02*
X1150140D01*
X1090140Y345920D02*
Y405920D01*
Y345920D02*
X1150140D01*
Y405920D01*
X1119350Y825020D02*
X1179350D01*
X1119350Y765020D02*
Y825020D01*
Y765020D02*
X1179350D01*
Y825020D01*
X940280Y907570D02*
X1000280D01*
X940280Y847570D02*
Y907570D01*
Y847570D02*
X1000280D01*
Y907570D01*
X589370Y1020090D02*
X606970D01*
X589370Y1029690D02*
X606970D01*
Y1020090D02*
Y1029690D01*
X589370Y1020090D02*
Y1029690D01*
X481610Y642710D02*
Y660310D01*
X491210Y642710D02*
Y660310D01*
X481610Y642710D02*
X491210D01*
X481610Y660310D02*
X491210D01*
X467080Y659090D02*
Y676690D01*
X457480Y659090D02*
Y676690D01*
X467080D01*
X457480Y659090D02*
X467080D01*
X595850Y749580D02*
Y759180D01*
X613450Y749580D02*
Y759180D01*
X595850D02*
X613450D01*
X595850Y749580D02*
X613450D01*
X708440Y758470D02*
Y768070D01*
X690840Y758470D02*
Y768070D01*
Y758470D02*
X708440D01*
X690840Y768070D02*
X708440D01*
X595720Y778790D02*
X613320D01*
X595720Y788390D02*
X613320D01*
Y778790D02*
Y788390D01*
X595720Y778790D02*
Y788390D01*
X691100Y796010D02*
X708700D01*
X691100Y786410D02*
X708700D01*
X691100D02*
Y796010D01*
X708700Y786410D02*
Y796010D01*
X807300Y458070D02*
X838620D01*
X994410Y488950D02*
Y501650D01*
X988060Y495300D02*
X1000760D01*
X892810Y488950D02*
Y501650D01*
X538870Y701730D02*
X555870D01*
X538870Y692730D02*
X555870D01*
X538870D02*
Y701730D01*
X555870Y692730D02*
Y701730D01*
X594890Y663300D02*
X692890D01*
X594890Y708300D02*
X692890D01*
X594890Y663300D02*
Y708300D01*
X692890Y663300D02*
Y708300D01*
X537780Y681410D02*
X554780D01*
X537780Y672410D02*
X554780D01*
X537780D02*
Y681410D01*
X554780Y672410D02*
Y681410D01*
D12*
X1004242Y981319D02*
G03*
X1004242Y1022741I15607J20711D01*
G01*
D13*
X1004062Y981456D02*
Y1022604D01*
M02*
