G04*
G04 #@! TF.GenerationSoftware,Altium Limited,Altium Designer,24.10.1 (45)*
G04*
G04 Layer_Color=8388736*
%FSLAX44Y44*%
%MOMM*%
G71*
G04*
G04 #@! TF.SameCoordinates,03EB8B32-1028-4CD5-B254-22B402A092A0*
G04*
G04*
G04 #@! TF.FilePolarity,Negative*
G04*
G01*
G75*
%ADD22R,1.1232X1.1832*%
%ADD23R,1.1832X1.1232*%
%ADD24R,1.0732X1.1332*%
G04:AMPARAMS|DCode=25|XSize=1.7032mm|YSize=0.6132mm|CornerRadius=0.1529mm|HoleSize=0mm|Usage=FLASHONLY|Rotation=270.000|XOffset=0mm|YOffset=0mm|HoleType=Round|Shape=RoundedRectangle|*
%AMROUNDEDRECTD25*
21,1,1.7032,0.3075,0,0,270.0*
21,1,1.3975,0.6132,0,0,270.0*
1,1,0.3057,-0.1538,-0.6988*
1,1,0.3057,-0.1538,0.6988*
1,1,0.3057,0.1538,0.6988*
1,1,0.3057,0.1538,-0.6988*
%
%ADD25ROUNDEDRECTD25*%
%ADD26R,12.2682X1.4732*%
%ADD27R,12.9032X1.4732*%
%ADD28C,1.7112*%
%ADD29R,1.7112X1.7112*%
%ADD30C,1.4032*%
%ADD31C,1.6032*%
%ADD32C,1.7032*%
%ADD33R,1.7032X1.7032*%
%ADD34R,1.4032X1.4032*%
%ADD35C,2.0182*%
%ADD36R,2.0182X2.0182*%
%ADD37C,1.6112*%
%ADD38R,1.7018X1.7018*%
%ADD39C,1.7018*%
%ADD40R,2.2032X2.2032*%
%ADD41C,2.2032*%
%ADD42C,1.4732*%
D22*
X504320Y716280D02*
D03*
X488820D02*
D03*
X590420Y1024890D02*
D03*
X605920D02*
D03*
X612400Y754380D02*
D03*
X596900D02*
D03*
X691890Y763270D02*
D03*
X707390D02*
D03*
X596770Y783590D02*
D03*
X612270D02*
D03*
X707650Y791210D02*
D03*
X692150D02*
D03*
D23*
X486410Y659260D02*
D03*
Y643760D02*
D03*
X462280Y660140D02*
D03*
Y675640D02*
D03*
D24*
X555170Y697230D02*
D03*
X539570D02*
D03*
X554080Y676910D02*
D03*
X538480D02*
D03*
D25*
X686140Y656950D02*
D03*
X679640D02*
D03*
X673140D02*
D03*
X666640D02*
D03*
X660140D02*
D03*
X653640D02*
D03*
X647140D02*
D03*
X640640D02*
D03*
X634140D02*
D03*
X627640D02*
D03*
X621140D02*
D03*
X614640D02*
D03*
X608140D02*
D03*
X601640D02*
D03*
Y714650D02*
D03*
X608140D02*
D03*
X614640D02*
D03*
X621140D02*
D03*
X627640D02*
D03*
X634140D02*
D03*
X640640D02*
D03*
X647140D02*
D03*
X653640D02*
D03*
X660140D02*
D03*
X666640D02*
D03*
X673140D02*
D03*
X679640D02*
D03*
X686140D02*
D03*
D26*
X367665Y668655D02*
D03*
Y690245D02*
D03*
D27*
X364490Y717550D02*
D03*
Y641350D02*
D03*
D28*
X1097640Y343420D02*
D03*
Y408420D02*
D03*
X1142640Y343420D02*
D03*
X1126850Y762520D02*
D03*
Y827520D02*
D03*
X1171850Y762520D02*
D03*
X947780Y845070D02*
D03*
Y910070D02*
D03*
X992780Y845070D02*
D03*
D29*
X1142640Y408420D02*
D03*
X1171850Y827520D02*
D03*
X992780Y910070D02*
D03*
D30*
X1082040Y481330D02*
D03*
X1158240D02*
D03*
X1097280Y905120D02*
D03*
X1173480D02*
D03*
X1193800Y701040D02*
D03*
X1117600D02*
D03*
X718820Y1008380D02*
D03*
X795020D02*
D03*
X581660Y356870D02*
D03*
X505460D02*
D03*
X703580Y355600D02*
D03*
X627380D02*
D03*
X577850Y518160D02*
D03*
X501650D02*
D03*
X706120Y521970D02*
D03*
X629920D02*
D03*
X632460Y431800D02*
D03*
X708660D02*
D03*
X755650Y519430D02*
D03*
Y443230D02*
D03*
X913130Y978460D02*
D03*
X580390Y431800D02*
D03*
X504190D02*
D03*
D31*
X1069340Y552450D02*
D03*
X1170940D02*
D03*
X1097280Y978780D02*
D03*
X1198880D02*
D03*
X967740Y773430D02*
D03*
X1069340D02*
D03*
X999490Y342900D02*
D03*
X897890D02*
D03*
X810260Y867410D02*
D03*
X708660D02*
D03*
X868680Y341630D02*
D03*
X767080D02*
D03*
X707390Y830580D02*
D03*
X808990D02*
D03*
X532130Y825500D02*
D03*
X633730D02*
D03*
X533400Y862330D02*
D03*
X635000D02*
D03*
X533400Y929640D02*
D03*
X635000D02*
D03*
X533400Y965200D02*
D03*
X635000D02*
D03*
X532130Y1000760D02*
D03*
X633730D02*
D03*
X807720Y904240D02*
D03*
X706120D02*
D03*
X708660Y938530D02*
D03*
X810260D02*
D03*
X635000Y897890D02*
D03*
X533400D02*
D03*
D32*
X849630Y774700D02*
D03*
Y800100D02*
D03*
X875030Y774700D02*
D03*
Y800100D02*
D03*
X900430Y774700D02*
D03*
D33*
Y800100D02*
D03*
D34*
X913130Y1013460D02*
D03*
D35*
X822960Y420370D02*
D03*
D36*
Y445770D02*
D03*
D37*
X976110Y444500D02*
D03*
X911110D02*
D03*
D38*
X1007110Y1014730D02*
D03*
D39*
X1032510Y1002030D02*
D03*
X1007110Y989330D02*
D03*
D40*
X732790Y637310D02*
D03*
D41*
X758190D02*
D03*
X885190D02*
D03*
X910590D02*
D03*
X783590D02*
D03*
X808990D02*
D03*
X859790D02*
D03*
X834390D02*
D03*
X935990D02*
D03*
X961390D02*
D03*
X986790D02*
D03*
X1012190D02*
D03*
X1037590D02*
D03*
X1062990D02*
D03*
Y716510D02*
D03*
X1037590D02*
D03*
X1012190D02*
D03*
X986790D02*
D03*
X961390D02*
D03*
X935990D02*
D03*
X910590D02*
D03*
X885190D02*
D03*
X859790D02*
D03*
X834390D02*
D03*
X808990D02*
D03*
X783590D02*
D03*
X758190D02*
D03*
X732790D02*
D03*
D42*
X501650Y659260D02*
D03*
X1012190Y768350D02*
D03*
X610870Y734060D02*
D03*
X616966Y537464D02*
D03*
X971296Y812292D02*
D03*
M02*
